<svg xmlns="http://www.w3.org/2000/svg" xmlns:xlink="http://www.w3.org/1999/xlink" width="960" zoomAndPan="magnify" viewBox="0 0 720 149.999998" height="200" preserveAspectRatio="xMidYMid meet" version="1.0"><defs><filter x="0%" y="0%" width="100%" height="100%" id="479e04bd1c"><feColorMatrix values="0 0 0 0 1 0 0 0 0 1 0 0 0 0 1 0 0 0 1 0" color-interpolation-filters="sRGB"/></filter><g/><linearGradient x1="0" gradientTransform="matrix(0.75, 0, 0, 0.75, 0.000006, 0.000002)" y1="100" x2="959.99996" gradientUnits="userSpaceOnUse" y2="100" id="856bef7410"><stop stop-opacity="1" stop-color="rgb(12.199402%, 3.49884%, 16.899109%)" offset="0"/><stop stop-opacity="1" stop-color="rgb(12.272644%, 3.520203%, 16.999817%)" offset="0.015625"/><stop stop-opacity="1" stop-color="rgb(12.419128%, 3.564453%, 17.201233%)" offset="0.03125"/><stop stop-opacity="1" stop-color="rgb(12.565613%, 3.608704%, 17.402649%)" offset="0.046875"/><stop stop-opacity="1" stop-color="rgb(12.713623%, 3.651428%, 17.604065%)" offset="0.0625"/><stop stop-opacity="1" stop-color="rgb(12.860107%, 3.695679%, 17.805481%)" offset="0.078125"/><stop stop-opacity="1" stop-color="rgb(13.006592%, 3.739929%, 18.008423%)" offset="0.09375"/><stop stop-opacity="1" stop-color="rgb(13.153076%, 3.782654%, 18.209839%)" offset="0.109375"/><stop stop-opacity="1" stop-color="rgb(13.301086%, 3.826904%, 18.411255%)" offset="0.125"/><stop stop-opacity="1" stop-color="rgb(13.447571%, 3.871155%, 18.612671%)" offset="0.140625"/><stop stop-opacity="1" stop-color="rgb(13.594055%, 3.913879%, 18.814087%)" offset="0.15625"/><stop stop-opacity="1" stop-color="rgb(13.74054%, 3.95813%, 19.015503%)" offset="0.171875"/><stop stop-opacity="1" stop-color="rgb(13.88855%, 4.00238%, 19.216919%)" offset="0.1875"/><stop stop-opacity="1" stop-color="rgb(14.035034%, 4.045105%, 19.418335%)" offset="0.203125"/><stop stop-opacity="1" stop-color="rgb(14.181519%, 4.089355%, 19.619751%)" offset="0.21875"/><stop stop-opacity="1" stop-color="rgb(14.328003%, 4.133606%, 19.821167%)" offset="0.234375"/><stop stop-opacity="1" stop-color="rgb(14.476013%, 4.176331%, 20.024109%)" offset="0.25"/><stop stop-opacity="1" stop-color="rgb(14.622498%, 4.220581%, 20.225525%)" offset="0.265625"/><stop stop-opacity="1" stop-color="rgb(14.768982%, 4.264832%, 20.426941%)" offset="0.28125"/><stop stop-opacity="1" stop-color="rgb(14.915466%, 4.307556%, 20.628357%)" offset="0.296875"/><stop stop-opacity="1" stop-color="rgb(15.063477%, 4.351807%, 20.829773%)" offset="0.3125"/><stop stop-opacity="1" stop-color="rgb(15.209961%, 4.396057%, 21.031189%)" offset="0.328125"/><stop stop-opacity="1" stop-color="rgb(15.356445%, 4.438782%, 21.232605%)" offset="0.34375"/><stop stop-opacity="1" stop-color="rgb(15.504456%, 4.483032%, 21.434021%)" offset="0.359375"/><stop stop-opacity="1" stop-color="rgb(15.65094%, 4.527283%, 21.635437%)" offset="0.375"/><stop stop-opacity="1" stop-color="rgb(15.797424%, 4.570007%, 21.836853%)" offset="0.390625"/><stop stop-opacity="1" stop-color="rgb(15.943909%, 4.614258%, 22.038269%)" offset="0.40625"/><stop stop-opacity="1" stop-color="rgb(16.091919%, 4.658508%, 22.241211%)" offset="0.421875"/><stop stop-opacity="1" stop-color="rgb(16.238403%, 4.701233%, 22.442627%)" offset="0.4375"/><stop stop-opacity="1" stop-color="rgb(16.384888%, 4.745483%, 22.644043%)" offset="0.453125"/><stop stop-opacity="1" stop-color="rgb(16.531372%, 4.789734%, 22.845459%)" offset="0.46875"/><stop stop-opacity="1" stop-color="rgb(16.679382%, 4.832458%, 23.046875%)" offset="0.484375"/><stop stop-opacity="1" stop-color="rgb(16.825867%, 4.876709%, 23.248291%)" offset="0.5"/><stop stop-opacity="1" stop-color="rgb(16.972351%, 4.920959%, 23.449707%)" offset="0.515625"/><stop stop-opacity="1" stop-color="rgb(17.118835%, 4.963684%, 23.651123%)" offset="0.53125"/><stop stop-opacity="1" stop-color="rgb(17.266846%, 5.007935%, 23.852539%)" offset="0.546875"/><stop stop-opacity="1" stop-color="rgb(17.41333%, 5.052185%, 24.053955%)" offset="0.5625"/><stop stop-opacity="1" stop-color="rgb(17.559814%, 5.09491%, 24.256897%)" offset="0.578125"/><stop stop-opacity="1" stop-color="rgb(17.706299%, 5.13916%, 24.458313%)" offset="0.59375"/><stop stop-opacity="1" stop-color="rgb(17.854309%, 5.183411%, 24.659729%)" offset="0.609375"/><stop stop-opacity="1" stop-color="rgb(18.000793%, 5.226135%, 24.861145%)" offset="0.625"/><stop stop-opacity="1" stop-color="rgb(18.147278%, 5.270386%, 25.062561%)" offset="0.640625"/><stop stop-opacity="1" stop-color="rgb(18.293762%, 5.314636%, 25.263977%)" offset="0.65625"/><stop stop-opacity="1" stop-color="rgb(18.441772%, 5.357361%, 25.465393%)" offset="0.671875"/><stop stop-opacity="1" stop-color="rgb(18.588257%, 5.401611%, 25.666809%)" offset="0.6875"/><stop stop-opacity="1" stop-color="rgb(18.734741%, 5.445862%, 25.868225%)" offset="0.703125"/><stop stop-opacity="1" stop-color="rgb(18.881226%, 5.488586%, 26.069641%)" offset="0.71875"/><stop stop-opacity="1" stop-color="rgb(19.029236%, 5.532837%, 26.271057%)" offset="0.734375"/><stop stop-opacity="1" stop-color="rgb(19.17572%, 5.577087%, 26.473999%)" offset="0.75"/><stop stop-opacity="1" stop-color="rgb(19.322205%, 5.621338%, 26.675415%)" offset="0.765625"/><stop stop-opacity="1" stop-color="rgb(19.468689%, 5.664062%, 26.876831%)" offset="0.78125"/><stop stop-opacity="1" stop-color="rgb(19.616699%, 5.708313%, 27.078247%)" offset="0.796875"/><stop stop-opacity="1" stop-color="rgb(19.763184%, 5.752563%, 27.279663%)" offset="0.8125"/><stop stop-opacity="1" stop-color="rgb(19.909668%, 5.795288%, 27.481079%)" offset="0.828125"/><stop stop-opacity="1" stop-color="rgb(20.056152%, 5.839539%, 27.682495%)" offset="0.84375"/><stop stop-opacity="1" stop-color="rgb(20.204163%, 5.883789%, 27.883911%)" offset="0.859375"/><stop stop-opacity="1" stop-color="rgb(20.350647%, 5.926514%, 28.085327%)" offset="0.875"/><stop stop-opacity="1" stop-color="rgb(20.497131%, 5.970764%, 28.286743%)" offset="0.890625"/><stop stop-opacity="1" stop-color="rgb(20.643616%, 6.015015%, 28.489685%)" offset="0.90625"/><stop stop-opacity="1" stop-color="rgb(20.791626%, 6.057739%, 28.691101%)" offset="0.921875"/><stop stop-opacity="1" stop-color="rgb(20.93811%, 6.10199%, 28.892517%)" offset="0.9375"/><stop stop-opacity="1" stop-color="rgb(21.084595%, 6.14624%, 29.093933%)" offset="0.953125"/><stop stop-opacity="1" stop-color="rgb(21.232605%, 6.188965%, 29.295349%)" offset="0.96875"/><stop stop-opacity="1" stop-color="rgb(21.379089%, 6.233215%, 29.496765%)" offset="0.984375"/><stop stop-opacity="1" stop-color="rgb(21.525574%, 6.277466%, 29.698181%)" offset="1"/></linearGradient><clipPath id="d9785717fa"><path d="M 390.242188 34.300781 L 426.578125 34.300781 L 426.578125 69.738281 L 390.242188 69.738281 Z M 390.242188 34.300781 " clip-rule="nonzero"/></clipPath><mask id="0079bb12a6"><g filter="url(#479e04bd1c)"><rect x="-72" width="864" fill="#000000" y="-15" height="179.999997" fill-opacity="0.4"/></g></mask><clipPath id="fe03d89375"><path d="M 0.160156 0.761719 L 259.359375 0.761719 L 259.359375 1.480469 L 0.160156 1.480469 Z M 0.160156 0.761719 " clip-rule="nonzero"/></clipPath><clipPath id="003a633c9d"><rect x="0" width="260" y="0" height="2"/></clipPath><mask id="36687a635b"><g filter="url(#479e04bd1c)"><rect x="-72" width="864" fill="#000000" y="-15" height="179.999997" fill-opacity="0.44"/></g></mask><clipPath id="04d40be23b"><path d="M 87 0.679688 L 159 0.679688 L 159 67 L 87 67 Z M 87 0.679688 " clip-rule="nonzero"/></clipPath><mask id="940aff2aa4"><g filter="url(#479e04bd1c)"><rect x="-695.4" width="1036.8" fill="#000000" y="-81.999999" height="215.999996" fill-opacity="0.08"/></g></mask><clipPath id="f31b87b608"><path d="M 0.511719 0.882812 L 71.597656 0.882812 L 71.597656 66.339844 L 0.511719 66.339844 Z M 0.511719 0.882812 " clip-rule="nonzero"/></clipPath><clipPath id="e7d358ce77"><path d="M 0.511719 64.839844 L 0.511719 2.382812 C 0.511719 1.984375 0.667969 1.601562 0.949219 1.320312 C 1.230469 1.039062 1.613281 0.882812 2.011719 0.882812 L 69.988281 0.882812 C 70.386719 0.882812 70.769531 1.039062 71.050781 1.320312 C 71.332031 1.601562 71.488281 1.984375 71.488281 2.382812 L 71.488281 64.839844 C 71.488281 65.238281 71.332031 65.621094 71.050781 65.902344 C 70.769531 66.183594 70.386719 66.339844 69.988281 66.339844 L 2.011719 66.339844 C 1.613281 66.339844 1.230469 66.183594 0.949219 65.902344 C 0.667969 65.621094 0.511719 65.238281 0.511719 64.839844 Z M 0.511719 64.839844 " clip-rule="nonzero"/></clipPath><clipPath id="e1d2611580"><rect x="0" width="72" y="0" height="67"/></clipPath><clipPath id="b898f757b5"><path d="M 36 0.679688 L 73 0.679688 L 73 34 L 36 34 Z M 36 0.679688 " clip-rule="nonzero"/></clipPath><mask id="f12aa51074"><g filter="url(#479e04bd1c)"><rect x="-695.4" width="1036.8" fill="#000000" y="-81.999999" height="215.999996" fill-opacity="0.08"/></g></mask><clipPath id="86219a118a"><path d="M 0.511719 0.882812 L 36 0.882812 L 36 33.613281 L 0.511719 33.613281 Z M 0.511719 0.882812 " clip-rule="nonzero"/></clipPath><clipPath id="ce4b189a1f"><path d="M 0.511719 32.113281 L 0.511719 2.382812 C 0.511719 1.984375 0.671875 1.601562 0.953125 1.320312 C 1.234375 1.039062 1.613281 0.882812 2.011719 0.882812 L 34.5 0.882812 C 34.898438 0.882812 35.28125 1.039062 35.5625 1.320312 C 35.84375 1.601562 36 1.984375 36 2.382812 L 36 32.113281 C 36 32.507812 35.84375 32.890625 35.5625 33.171875 C 35.28125 33.453125 34.898438 33.613281 34.5 33.613281 L 2.011719 33.613281 C 1.613281 33.613281 1.234375 33.453125 0.953125 33.171875 C 0.671875 32.890625 0.511719 32.507812 0.511719 32.113281 Z M 0.511719 32.113281 " clip-rule="nonzero"/></clipPath><clipPath id="4154fe85a4"><rect x="0" width="37" y="0" height="34"/></clipPath><mask id="eb797cdc1e"><g filter="url(#479e04bd1c)"><rect x="-695.4" width="1036.8" fill="#000000" y="-81.999999" height="215.999996" fill-opacity="0.08"/></g></mask><clipPath id="a4c011c4bc"><path d="M 0.511719 0.339844 L 51.585938 0.339844 L 51.585938 35 L 0.511719 35 Z M 0.511719 0.339844 " clip-rule="nonzero"/></clipPath><clipPath id="f63f02350b"><path d="M 0.511719 45.875 L 0.511719 1.839844 C 0.511719 1.445312 0.671875 1.0625 0.953125 0.78125 C 1.234375 0.5 1.613281 0.339844 2.011719 0.339844 L 50.011719 0.339844 C 50.40625 0.339844 50.789062 0.5 51.070312 0.78125 C 51.351562 1.0625 51.511719 1.445312 51.511719 1.839844 L 51.511719 45.875 C 51.511719 46.269531 51.351562 46.652344 51.070312 46.933594 C 50.789062 47.214844 50.40625 47.375 50.011719 47.375 L 2.011719 47.375 C 1.613281 47.375 1.234375 47.214844 0.953125 46.933594 C 0.671875 46.652344 0.511719 46.269531 0.511719 45.875 Z M 0.511719 45.875 " clip-rule="nonzero"/></clipPath><clipPath id="497ba3bc5e"><rect x="0" width="52" y="0" height="35"/></clipPath><clipPath id="47bf4d666b"><path d="M 0.839844 33 L 37 33 L 37 67 L 0.839844 67 Z M 0.839844 33 " clip-rule="nonzero"/></clipPath><mask id="a1dfde740e"><g filter="url(#479e04bd1c)"><rect x="-695.4" width="1036.8" fill="#000000" y="-81.999999" height="215.999996" fill-opacity="0.08"/></g></mask><clipPath id="243aac4a50"><path d="M 1.023438 0.613281 L 36.566406 0.613281 L 36.566406 33.339844 L 1.023438 33.339844 Z M 1.023438 0.613281 " clip-rule="nonzero"/></clipPath><clipPath id="136a7e8042"><path d="M 1.023438 31.839844 L 1.023438 2.113281 C 1.023438 1.714844 1.179688 1.332031 1.460938 1.050781 C 1.742188 0.769531 2.125 0.613281 2.523438 0.613281 L 35.011719 0.613281 C 35.410156 0.613281 35.792969 0.769531 36.074219 1.050781 C 36.355469 1.332031 36.511719 1.714844 36.511719 2.113281 L 36.511719 31.839844 C 36.511719 32.238281 36.355469 32.621094 36.074219 32.902344 C 35.792969 33.183594 35.410156 33.339844 35.011719 33.339844 L 2.523438 33.339844 C 2.125 33.339844 1.742188 33.183594 1.460938 32.902344 C 1.179688 32.621094 1.023438 32.238281 1.023438 31.839844 Z M 1.023438 31.839844 " clip-rule="nonzero"/></clipPath><clipPath id="3e694af1fc"><rect x="0" width="37" y="0" height="34"/></clipPath><mask id="0dd8896d9f"><g filter="url(#479e04bd1c)"><rect x="-695.4" width="1036.8" fill="#000000" y="-81.999999" height="215.999996" fill-opacity="0.08"/></g></mask><clipPath id="975d03b954"><path d="M 0.488281 0.34375 L 25 0.34375 L 25 35 L 0.488281 35 Z M 0.488281 0.34375 " clip-rule="nonzero"/></clipPath><clipPath id="b8c4b0e655"><path d="M 1.988281 0.34375 L 113.308594 0.34375 C 113.707031 0.34375 114.089844 0.5 114.371094 0.78125 C 114.652344 1.0625 114.808594 1.445312 114.808594 1.84375 L 114.808594 104.273438 C 114.808594 104.671875 114.652344 105.050781 114.371094 105.332031 C 114.089844 105.613281 113.707031 105.773438 113.308594 105.773438 L 1.988281 105.773438 C 1.589844 105.773438 1.210938 105.613281 0.929688 105.332031 C 0.648438 105.050781 0.488281 104.671875 0.488281 104.273438 L 0.488281 1.84375 C 0.488281 1.445312 0.648438 1.0625 0.929688 0.78125 C 1.210938 0.5 1.589844 0.34375 1.988281 0.34375 Z M 1.988281 0.34375 " clip-rule="nonzero"/></clipPath><clipPath id="f6945a8c46"><rect x="0" width="25" y="0" height="35"/></clipPath><clipPath id="f2e2a9ec64"><path d="M 87 0.679688 L 159 0.679688 L 159 67 L 87 67 Z M 87 0.679688 " clip-rule="nonzero"/></clipPath><mask id="e036a20d17"><g filter="url(#479e04bd1c)"><rect x="-695.4" width="1036.8" fill="#000000" y="-81.999999" height="215.999996" fill-opacity="0.08"/></g></mask><clipPath id="c280f321a1"><path d="M 0.507812 0.882812 L 71.59375 0.882812 L 71.59375 66.34375 L 0.507812 66.34375 Z M 0.507812 0.882812 " clip-rule="nonzero"/></clipPath><clipPath id="07f3bbe080"><path d="M 2.007812 0.882812 L 69.988281 0.882812 C 70.386719 0.882812 70.769531 1.039062 71.050781 1.320312 C 71.332031 1.601562 71.488281 1.984375 71.488281 2.382812 L 71.488281 64.84375 C 71.488281 65.238281 71.332031 65.621094 71.050781 65.902344 C 70.769531 66.183594 70.386719 66.34375 69.988281 66.34375 L 2.007812 66.34375 C 1.613281 66.34375 1.230469 66.183594 0.949219 65.902344 C 0.667969 65.621094 0.507812 65.238281 0.507812 64.84375 L 0.507812 2.382812 C 0.507812 1.984375 0.667969 1.601562 0.949219 1.320312 C 1.230469 1.039062 1.613281 0.882812 2.007812 0.882812 Z M 2.007812 0.882812 " clip-rule="nonzero"/></clipPath><clipPath id="3562ba9860"><rect x="0" width="72" y="0" height="67"/></clipPath><mask id="14de54b298"><g filter="url(#479e04bd1c)"><rect x="-695.4" width="1036.8" fill="#000000" y="-81.999999" height="215.999996" fill-opacity="0.08"/></g></mask><clipPath id="2f0da9405b"><path d="M 0.511719 0.34375 L 51.585938 0.34375 L 51.585938 35 L 0.511719 35 Z M 0.511719 0.34375 " clip-rule="nonzero"/></clipPath><clipPath id="754e3a070f"><path d="M 2.011719 0.34375 L 50.007812 0.34375 C 50.40625 0.34375 50.789062 0.5 51.070312 0.78125 C 51.351562 1.0625 51.507812 1.445312 51.507812 1.84375 L 51.507812 45.875 C 51.507812 46.273438 51.351562 46.652344 51.070312 46.933594 C 50.789062 47.214844 50.40625 47.375 50.007812 47.375 L 2.011719 47.375 C 1.613281 47.375 1.234375 47.214844 0.949219 46.933594 C 0.667969 46.652344 0.511719 46.273438 0.511719 45.875 L 0.511719 1.84375 C 0.511719 1.445312 0.667969 1.0625 0.949219 0.78125 C 1.234375 0.5 1.613281 0.34375 2.011719 0.34375 Z M 2.011719 0.34375 " clip-rule="nonzero"/></clipPath><clipPath id="b1eab251a1"><rect x="0" width="52" y="0" height="35"/></clipPath><clipPath id="b3354592f9"><path d="M 36 0.679688 L 73 0.679688 L 73 34 L 36 34 Z M 36 0.679688 " clip-rule="nonzero"/></clipPath><mask id="6804ebc2a0"><g filter="url(#479e04bd1c)"><rect x="-695.4" width="1036.8" fill="#000000" y="-81.999999" height="215.999996" fill-opacity="0.08"/></g></mask><clipPath id="56dd3e70f7"><path d="M 0.511719 0.882812 L 36 0.882812 L 36 33.613281 L 0.511719 33.613281 Z M 0.511719 0.882812 " clip-rule="nonzero"/></clipPath><clipPath id="3e0572ca36"><path d="M 2.011719 0.882812 L 34.5 0.882812 C 34.898438 0.882812 35.28125 1.039062 35.5625 1.320312 C 35.84375 1.601562 36 1.984375 36 2.382812 L 36 32.113281 C 36 32.511719 35.84375 32.890625 35.5625 33.171875 C 35.28125 33.453125 34.898438 33.613281 34.5 33.613281 L 2.011719 33.613281 C 1.613281 33.613281 1.234375 33.453125 0.949219 33.171875 C 0.667969 32.890625 0.511719 32.511719 0.511719 32.113281 L 0.511719 2.382812 C 0.511719 1.984375 0.667969 1.601562 0.949219 1.320312 C 1.234375 1.039062 1.613281 0.882812 2.011719 0.882812 Z M 2.011719 0.882812 " clip-rule="nonzero"/></clipPath><clipPath id="0661d126bd"><rect x="0" width="37" y="0" height="34"/></clipPath><clipPath id="9386aa463d"><path d="M 0.839844 33 L 37 33 L 37 67 L 0.839844 67 Z M 0.839844 33 " clip-rule="nonzero"/></clipPath><mask id="2b221e4d99"><g filter="url(#479e04bd1c)"><rect x="-695.4" width="1036.8" fill="#000000" y="-81.999999" height="215.999996" fill-opacity="0.08"/></g></mask><clipPath id="ab3dbb9788"><path d="M 1.023438 0.613281 L 36.566406 0.613281 L 36.566406 33.34375 L 1.023438 33.34375 Z M 1.023438 0.613281 " clip-rule="nonzero"/></clipPath><clipPath id="10ba873e91"><path d="M 2.523438 0.613281 L 35.011719 0.613281 C 35.410156 0.613281 35.792969 0.769531 36.074219 1.050781 C 36.355469 1.332031 36.511719 1.714844 36.511719 2.113281 L 36.511719 31.84375 C 36.511719 32.238281 36.355469 32.621094 36.074219 32.902344 C 35.792969 33.183594 35.410156 33.34375 35.011719 33.34375 L 2.523438 33.34375 C 2.125 33.34375 1.742188 33.183594 1.460938 32.902344 C 1.179688 32.621094 1.023438 32.238281 1.023438 31.84375 L 1.023438 2.113281 C 1.023438 1.714844 1.179688 1.332031 1.460938 1.050781 C 1.742188 0.769531 2.125 0.613281 2.523438 0.613281 Z M 2.523438 0.613281 " clip-rule="nonzero"/></clipPath><clipPath id="23d5555c95"><rect x="0" width="37" y="0" height="34"/></clipPath><clipPath id="19599a6c4e"><rect x="0" width="183" y="0" height="101"/></clipPath></defs><rect x="-72" width="864" fill="#ffffff" y="-15" height="179.999997" fill-opacity="1"/><rect x="-72" fill="url(#856bef7410)" width="864" y="-15" height="179.999997"/><g fill="#dbd0e1" fill-opacity="1"><g transform="translate(221.997803, 50.200665)"><g><path d="M 12.828125 -13.4375 L 12.828125 0 L 9.546875 0 L 9.546875 -5.53125 L 4.453125 -5.53125 L 4.453125 0 L 1.1875 0 L 1.1875 -13.4375 L 4.453125 -13.4375 L 4.453125 -8.171875 L 9.546875 -8.171875 L 9.546875 -13.4375 Z M 12.828125 -13.4375 "/></g></g></g><g fill="#dbd0e1" fill-opacity="1"><g transform="translate(235.985408, 50.200665)"><g><path d="M 4.40625 -13.4375 L 4.40625 -5.390625 C 4.40625 -4.585938 4.601562 -3.96875 5 -3.53125 C 5.394531 -3.101562 5.972656 -2.890625 6.734375 -2.890625 C 7.503906 -2.890625 8.09375 -3.101562 8.5 -3.53125 C 8.90625 -3.96875 9.109375 -4.585938 9.109375 -5.390625 L 9.109375 -13.4375 L 12.390625 -13.4375 L 12.390625 -5.421875 C 12.390625 -4.222656 12.132812 -3.207031 11.625 -2.375 C 11.113281 -1.539062 10.425781 -0.910156 9.5625 -0.484375 C 8.695312 -0.0664062 7.738281 0.140625 6.6875 0.140625 C 5.625 0.140625 4.671875 -0.0664062 3.828125 -0.484375 C 2.992188 -0.898438 2.332031 -1.523438 1.84375 -2.359375 C 1.363281 -3.203125 1.125 -4.222656 1.125 -5.421875 L 1.125 -13.4375 Z M 4.40625 -13.4375 "/></g></g></g><g fill="#dbd0e1" fill-opacity="1"><g transform="translate(249.475508, 50.200665)"><g><path d="M 16.40625 -13.4375 L 16.40625 0 L 13.125 0 L 13.125 -8.0625 L 10.125 0 L 7.484375 0 L 4.453125 -8.078125 L 4.453125 0 L 1.1875 0 L 1.1875 -13.4375 L 5.046875 -13.4375 L 8.828125 -4.140625 L 12.5625 -13.4375 Z M 16.40625 -13.4375 "/></g></g></g><g fill="#dbd0e1" fill-opacity="1"><g transform="translate(267.041334, 50.200665)"><g><path d="M 9.546875 -2.375 L 4.53125 -2.375 L 3.734375 0 L 0.3125 0 L 5.171875 -13.4375 L 8.953125 -13.4375 L 13.8125 0 L 10.359375 0 Z M 8.703125 -4.90625 L 7.046875 -9.8125 L 5.390625 -4.90625 Z M 8.703125 -4.90625 "/></g></g></g><g fill="#dbd0e1" fill-opacity="1"><g transform="translate(281.143748, 50.200665)"><g><path d="M 13.203125 0 L 9.9375 0 L 4.453125 -8.28125 L 4.453125 0 L 1.1875 0 L 1.1875 -13.4375 L 4.453125 -13.4375 L 9.9375 -5.109375 L 9.9375 -13.4375 L 13.203125 -13.4375 Z M 13.203125 0 "/></g></g></g><g fill="#dbd0e1" fill-opacity="1"><g transform="translate(295.533186, 50.200665)"><g/></g></g><g fill="#dbd0e1" fill-opacity="1"><g transform="translate(299.589781, 50.200665)"><g><path d="M 9.328125 -6.890625 C 10.097656 -6.722656 10.71875 -6.335938 11.1875 -5.734375 C 11.664062 -5.128906 11.90625 -4.4375 11.90625 -3.65625 C 11.90625 -2.53125 11.507812 -1.640625 10.71875 -0.984375 C 9.9375 -0.328125 8.847656 0 7.453125 0 L 1.1875 0 L 1.1875 -13.4375 L 7.234375 -13.4375 C 8.597656 -13.4375 9.664062 -13.125 10.4375 -12.5 C 11.207031 -11.875 11.59375 -11.023438 11.59375 -9.953125 C 11.59375 -9.160156 11.382812 -8.503906 10.96875 -7.984375 C 10.5625 -7.460938 10.015625 -7.097656 9.328125 -6.890625 Z M 4.453125 -8 L 6.609375 -8 C 7.140625 -8 7.546875 -8.113281 7.828125 -8.34375 C 8.117188 -8.582031 8.265625 -8.929688 8.265625 -9.390625 C 8.265625 -9.859375 8.117188 -10.210938 7.828125 -10.453125 C 7.546875 -10.691406 7.140625 -10.8125 6.609375 -10.8125 L 4.453125 -10.8125 Z M 6.875 -2.640625 C 7.414062 -2.640625 7.835938 -2.765625 8.140625 -3.015625 C 8.441406 -3.265625 8.59375 -3.625 8.59375 -4.09375 C 8.59375 -4.5625 8.4375 -4.929688 8.125 -5.203125 C 7.8125 -5.472656 7.378906 -5.609375 6.828125 -5.609375 L 4.453125 -5.609375 L 4.453125 -2.640625 Z M 6.875 -2.640625 "/></g></g></g><g fill="#dbd0e1" fill-opacity="1"><g transform="translate(312.199674, 50.200665)"><g><path d="M 9.546875 -2.375 L 4.53125 -2.375 L 3.734375 0 L 0.3125 0 L 5.171875 -13.4375 L 8.953125 -13.4375 L 13.8125 0 L 10.359375 0 Z M 8.703125 -4.90625 L 7.046875 -9.8125 L 5.390625 -4.90625 Z M 8.703125 -4.90625 "/></g></g></g><g fill="#dbd0e1" fill-opacity="1"><g transform="translate(326.302088, 50.200665)"><g><path d="M 6.046875 0.140625 C 5.066406 0.140625 4.1875 -0.0195312 3.40625 -0.34375 C 2.625 -0.664062 2 -1.140625 1.53125 -1.765625 C 1.070312 -2.390625 0.828125 -3.140625 0.796875 -4.015625 L 4.28125 -4.015625 C 4.332031 -3.515625 4.503906 -3.132812 4.796875 -2.875 C 5.097656 -2.613281 5.484375 -2.484375 5.953125 -2.484375 C 6.441406 -2.484375 6.820312 -2.59375 7.09375 -2.8125 C 7.375 -3.039062 7.515625 -3.351562 7.515625 -3.75 C 7.515625 -4.082031 7.40625 -4.359375 7.1875 -4.578125 C 6.96875 -4.796875 6.691406 -4.972656 6.359375 -5.109375 C 6.035156 -5.253906 5.578125 -5.414062 4.984375 -5.59375 C 4.109375 -5.851562 3.394531 -6.117188 2.84375 -6.390625 C 2.300781 -6.660156 1.832031 -7.054688 1.4375 -7.578125 C 1.039062 -8.097656 0.84375 -8.78125 0.84375 -9.625 C 0.84375 -10.875 1.296875 -11.851562 2.203125 -12.5625 C 3.109375 -13.269531 4.289062 -13.625 5.75 -13.625 C 7.226562 -13.625 8.421875 -13.269531 9.328125 -12.5625 C 10.234375 -11.851562 10.71875 -10.867188 10.78125 -9.609375 L 7.234375 -9.609375 C 7.210938 -10.046875 7.050781 -10.382812 6.75 -10.625 C 6.457031 -10.875 6.082031 -11 5.625 -11 C 5.226562 -11 4.910156 -10.894531 4.671875 -10.6875 C 4.429688 -10.476562 4.3125 -10.175781 4.3125 -9.78125 C 4.3125 -9.34375 4.515625 -9.003906 4.921875 -8.765625 C 5.328125 -8.523438 5.960938 -8.265625 6.828125 -7.984375 C 7.703125 -7.691406 8.410156 -7.410156 8.953125 -7.140625 C 9.492188 -6.867188 9.960938 -6.476562 10.359375 -5.96875 C 10.753906 -5.457031 10.953125 -4.800781 10.953125 -4 C 10.953125 -3.238281 10.753906 -2.539062 10.359375 -1.90625 C 9.972656 -1.28125 9.410156 -0.78125 8.671875 -0.40625 C 7.929688 -0.0390625 7.054688 0.140625 6.046875 0.140625 Z M 6.046875 0.140625 "/></g></g></g><g fill="#dbd0e1" fill-opacity="1"><g transform="translate(338.070044, 50.200665)"><g><path d="M 4.453125 -10.8125 L 4.453125 -8.09375 L 8.84375 -8.09375 L 8.84375 -5.5625 L 4.453125 -5.5625 L 4.453125 -2.625 L 9.421875 -2.625 L 9.421875 0 L 1.1875 0 L 1.1875 -13.4375 L 9.421875 -13.4375 L 9.421875 -10.8125 Z M 4.453125 -10.8125 "/></g></g></g><g fill="#dbd0e1" fill-opacity="1"><g transform="translate(348.42202, 50.200665)"><g><path d="M 6.21875 -13.4375 C 7.632812 -13.4375 8.867188 -13.15625 9.921875 -12.59375 C 10.984375 -12.03125 11.804688 -11.238281 12.390625 -10.21875 C 12.972656 -9.207031 13.265625 -8.039062 13.265625 -6.71875 C 13.265625 -5.40625 12.972656 -4.238281 12.390625 -3.21875 C 11.804688 -2.195312 10.984375 -1.40625 9.921875 -0.84375 C 8.859375 -0.28125 7.625 0 6.21875 0 L 1.1875 0 L 1.1875 -13.4375 Z M 6.015625 -2.828125 C 7.242188 -2.828125 8.203125 -3.164062 8.890625 -3.84375 C 9.585938 -4.519531 9.9375 -5.476562 9.9375 -6.71875 C 9.9375 -7.957031 9.585938 -8.921875 8.890625 -9.609375 C 8.203125 -10.296875 7.242188 -10.640625 6.015625 -10.640625 L 4.453125 -10.640625 L 4.453125 -2.828125 Z M 6.015625 -2.828125 "/></g></g></g><g fill="#dbd0e1" fill-opacity="1"><g transform="translate(221.990794, 67.934679)"><g><path d="M 8.578125 -6.828125 C 8.578125 -6.242188 8.441406 -5.710938 8.171875 -5.234375 C 7.898438 -4.753906 7.488281 -4.363281 6.9375 -4.0625 C 6.382812 -3.769531 5.695312 -3.625 4.875 -3.625 L 3.34375 -3.625 L 3.34375 0 L 0.890625 0 L 0.890625 -10.078125 L 4.875 -10.078125 C 5.675781 -10.078125 6.351562 -9.9375 6.90625 -9.65625 C 7.457031 -9.382812 7.875 -9.003906 8.15625 -8.515625 C 8.4375 -8.023438 8.578125 -7.460938 8.578125 -6.828125 Z M 4.6875 -5.578125 C 5.15625 -5.578125 5.503906 -5.6875 5.734375 -5.90625 C 5.960938 -6.125 6.078125 -6.429688 6.078125 -6.828125 C 6.078125 -7.234375 5.960938 -7.546875 5.734375 -7.765625 C 5.503906 -7.984375 5.15625 -8.09375 4.6875 -8.09375 L 3.34375 -8.09375 L 3.34375 -5.578125 Z M 4.6875 -5.578125 "/></g></g></g><g fill="#dbd0e1" fill-opacity="1"><g transform="translate(230.948144, 67.934679)"><g><path d="M 4.53125 0.109375 C 3.75 0.109375 3.046875 -0.0546875 2.421875 -0.390625 C 1.796875 -0.722656 1.300781 -1.195312 0.9375 -1.8125 C 0.582031 -2.4375 0.40625 -3.164062 0.40625 -4 C 0.40625 -4.820312 0.585938 -5.546875 0.953125 -6.171875 C 1.316406 -6.804688 1.8125 -7.289062 2.4375 -7.625 C 3.070312 -7.957031 3.78125 -8.125 4.5625 -8.125 C 5.351562 -8.125 6.0625 -7.957031 6.6875 -7.625 C 7.320312 -7.289062 7.820312 -6.804688 8.1875 -6.171875 C 8.550781 -5.546875 8.734375 -4.820312 8.734375 -4 C 8.734375 -3.175781 8.546875 -2.453125 8.171875 -1.828125 C 7.804688 -1.203125 7.304688 -0.722656 6.671875 -0.390625 C 6.035156 -0.0546875 5.320312 0.109375 4.53125 0.109375 Z M 4.53125 -2.015625 C 5 -2.015625 5.398438 -2.1875 5.734375 -2.53125 C 6.066406 -2.875 6.234375 -3.363281 6.234375 -4 C 6.234375 -4.644531 6.070312 -5.140625 5.75 -5.484375 C 5.425781 -5.828125 5.03125 -6 4.5625 -6 C 4.082031 -6 3.6875 -5.828125 3.375 -5.484375 C 3.0625 -5.148438 2.90625 -4.65625 2.90625 -4 C 2.90625 -3.363281 3.054688 -2.875 3.359375 -2.53125 C 3.671875 -2.1875 4.0625 -2.015625 4.53125 -2.015625 Z M 4.53125 -2.015625 "/></g></g></g><g fill="#dbd0e1" fill-opacity="1"><g transform="translate(240.092106, 67.934679)"><g><path d="M 12.390625 -8.015625 L 10.21875 0 L 7.515625 0 L 6.25 -5.203125 L 4.9375 0 L 2.234375 0 L 0.0625 -8.015625 L 2.515625 -8.015625 L 3.640625 -2.28125 L 5 -8.015625 L 7.59375 -8.015625 L 8.953125 -2.3125 L 10.078125 -8.015625 Z M 12.390625 -8.015625 "/></g></g></g><g fill="#dbd0e1" fill-opacity="1"><g transform="translate(252.523294, 67.934679)"><g><path d="M 8.4375 -4.140625 C 8.4375 -3.910156 8.425781 -3.671875 8.40625 -3.421875 L 2.84375 -3.421875 C 2.882812 -2.921875 3.046875 -2.535156 3.328125 -2.265625 C 3.609375 -2.003906 3.953125 -1.875 4.359375 -1.875 C 4.972656 -1.875 5.398438 -2.132812 5.640625 -2.65625 L 8.25 -2.65625 C 8.125 -2.125 7.882812 -1.648438 7.53125 -1.234375 C 7.175781 -0.816406 6.734375 -0.488281 6.203125 -0.25 C 5.679688 -0.0078125 5.097656 0.109375 4.453125 0.109375 C 3.671875 0.109375 2.972656 -0.0546875 2.359375 -0.390625 C 1.742188 -0.722656 1.265625 -1.195312 0.921875 -1.8125 C 0.578125 -2.4375 0.40625 -3.164062 0.40625 -4 C 0.40625 -4.832031 0.570312 -5.5625 0.90625 -6.1875 C 1.25 -6.8125 1.726562 -7.289062 2.34375 -7.625 C 2.957031 -7.957031 3.660156 -8.125 4.453125 -8.125 C 5.222656 -8.125 5.910156 -7.960938 6.515625 -7.640625 C 7.117188 -7.316406 7.585938 -6.851562 7.921875 -6.25 C 8.265625 -5.644531 8.4375 -4.941406 8.4375 -4.140625 Z M 5.9375 -4.78125 C 5.9375 -5.195312 5.789062 -5.53125 5.5 -5.78125 C 5.207031 -6.03125 4.847656 -6.15625 4.421875 -6.15625 C 4.015625 -6.15625 3.664062 -6.035156 3.375 -5.796875 C 3.09375 -5.554688 2.921875 -5.21875 2.859375 -4.78125 Z M 5.9375 -4.78125 "/></g></g></g><g fill="#dbd0e1" fill-opacity="1"><g transform="translate(261.365802, 67.934679)"><g><path d="M 3.34375 -6.671875 C 3.632812 -7.117188 3.992188 -7.46875 4.421875 -7.71875 C 4.847656 -7.96875 5.328125 -8.09375 5.859375 -8.09375 L 5.859375 -5.5 L 5.1875 -5.5 C 4.570312 -5.5 4.109375 -5.363281 3.796875 -5.09375 C 3.492188 -4.832031 3.34375 -4.375 3.34375 -3.71875 L 3.34375 0 L 0.890625 0 L 0.890625 -8.015625 L 3.34375 -8.015625 Z M 3.34375 -6.671875 "/></g></g></g><g fill="#dbd0e1" fill-opacity="1"><g transform="translate(267.509624, 67.934679)"><g><path d="M 8.4375 -4.140625 C 8.4375 -3.910156 8.425781 -3.671875 8.40625 -3.421875 L 2.84375 -3.421875 C 2.882812 -2.921875 3.046875 -2.535156 3.328125 -2.265625 C 3.609375 -2.003906 3.953125 -1.875 4.359375 -1.875 C 4.972656 -1.875 5.398438 -2.132812 5.640625 -2.65625 L 8.25 -2.65625 C 8.125 -2.125 7.882812 -1.648438 7.53125 -1.234375 C 7.175781 -0.816406 6.734375 -0.488281 6.203125 -0.25 C 5.679688 -0.0078125 5.097656 0.109375 4.453125 0.109375 C 3.671875 0.109375 2.972656 -0.0546875 2.359375 -0.390625 C 1.742188 -0.722656 1.265625 -1.195312 0.921875 -1.8125 C 0.578125 -2.4375 0.40625 -3.164062 0.40625 -4 C 0.40625 -4.832031 0.570312 -5.5625 0.90625 -6.1875 C 1.25 -6.8125 1.726562 -7.289062 2.34375 -7.625 C 2.957031 -7.957031 3.660156 -8.125 4.453125 -8.125 C 5.222656 -8.125 5.910156 -7.960938 6.515625 -7.640625 C 7.117188 -7.316406 7.585938 -6.851562 7.921875 -6.25 C 8.265625 -5.644531 8.4375 -4.941406 8.4375 -4.140625 Z M 5.9375 -4.78125 C 5.9375 -5.195312 5.789062 -5.53125 5.5 -5.78125 C 5.207031 -6.03125 4.847656 -6.15625 4.421875 -6.15625 C 4.015625 -6.15625 3.664062 -6.035156 3.375 -5.796875 C 3.09375 -5.554688 2.921875 -5.21875 2.859375 -4.78125 Z M 5.9375 -4.78125 "/></g></g></g><g fill="#dbd0e1" fill-opacity="1"><g transform="translate(276.352132, 67.934679)"><g><path d="M 0.40625 -4.015625 C 0.40625 -4.835938 0.554688 -5.5625 0.859375 -6.1875 C 1.171875 -6.8125 1.59375 -7.289062 2.125 -7.625 C 2.664062 -7.957031 3.269531 -8.125 3.9375 -8.125 C 4.457031 -8.125 4.9375 -8.015625 5.375 -7.796875 C 5.8125 -7.578125 6.15625 -7.28125 6.40625 -6.90625 L 6.40625 -10.625 L 8.859375 -10.625 L 8.859375 0 L 6.40625 0 L 6.40625 -1.15625 C 6.175781 -0.769531 5.847656 -0.460938 5.421875 -0.234375 C 4.992188 -0.00390625 4.5 0.109375 3.9375 0.109375 C 3.269531 0.109375 2.664062 -0.0546875 2.125 -0.390625 C 1.59375 -0.734375 1.171875 -1.21875 0.859375 -1.84375 C 0.554688 -2.46875 0.40625 -3.191406 0.40625 -4.015625 Z M 6.40625 -4 C 6.40625 -4.613281 6.234375 -5.097656 5.890625 -5.453125 C 5.554688 -5.804688 5.144531 -5.984375 4.65625 -5.984375 C 4.164062 -5.984375 3.75 -5.804688 3.40625 -5.453125 C 3.070312 -5.109375 2.90625 -4.628906 2.90625 -4.015625 C 2.90625 -3.410156 3.070312 -2.925781 3.40625 -2.5625 C 3.75 -2.207031 4.164062 -2.03125 4.65625 -2.03125 C 5.144531 -2.03125 5.554688 -2.207031 5.890625 -2.5625 C 6.234375 -2.914062 6.40625 -3.394531 6.40625 -4 Z M 6.40625 -4 "/></g></g></g><g fill="#dbd0e1" fill-opacity="1"><g transform="translate(286.098988, 67.934679)"><g/></g></g><g fill="#dbd0e1" fill-opacity="1"><g transform="translate(289.142189, 67.934679)"><g><path d="M 3.34375 -6.875 C 3.570312 -7.25 3.898438 -7.550781 4.328125 -7.78125 C 4.765625 -8.007812 5.257812 -8.125 5.8125 -8.125 C 6.476562 -8.125 7.078125 -7.957031 7.609375 -7.625 C 8.148438 -7.289062 8.570312 -6.8125 8.875 -6.1875 C 9.1875 -5.5625 9.34375 -4.835938 9.34375 -4.015625 C 9.34375 -3.191406 9.1875 -2.46875 8.875 -1.84375 C 8.570312 -1.21875 8.148438 -0.734375 7.609375 -0.390625 C 7.078125 -0.0546875 6.476562 0.109375 5.8125 0.109375 C 5.25 0.109375 4.753906 0 4.328125 -0.21875 C 3.910156 -0.445312 3.582031 -0.75 3.34375 -1.125 L 3.34375 0 L 0.890625 0 L 0.890625 -10.625 L 3.34375 -10.625 Z M 6.84375 -4.015625 C 6.84375 -4.628906 6.671875 -5.109375 6.328125 -5.453125 C 5.992188 -5.804688 5.578125 -5.984375 5.078125 -5.984375 C 4.585938 -5.984375 4.171875 -5.804688 3.828125 -5.453125 C 3.492188 -5.097656 3.328125 -4.613281 3.328125 -4 C 3.328125 -3.394531 3.492188 -2.914062 3.828125 -2.5625 C 4.171875 -2.207031 4.585938 -2.03125 5.078125 -2.03125 C 5.566406 -2.03125 5.984375 -2.207031 6.328125 -2.5625 C 6.671875 -2.925781 6.84375 -3.410156 6.84375 -4.015625 Z M 6.84375 -4.015625 "/></g></g></g><g fill="#dbd0e1" fill-opacity="1"><g transform="translate(298.889045, 67.934679)"><g><path d="M 9.078125 -8.015625 L 4.046875 3.8125 L 1.40625 3.8125 L 3.25 -0.265625 L -0.015625 -8.015625 L 2.734375 -8.015625 L 4.578125 -3 L 6.421875 -8.015625 Z M 9.078125 -8.015625 "/></g></g></g><g fill="#dbd0e1" fill-opacity="1"><g transform="translate(307.961232, 67.934679)"><g/></g></g><g fill="#dbd0e1" fill-opacity="1"><g transform="translate(311.004433, 67.934679)"><g><path d="M 7.171875 -1.78125 L 3.40625 -1.78125 L 2.796875 0 L 0.234375 0 L 3.875 -10.078125 L 6.71875 -10.078125 L 10.375 0 L 7.765625 0 Z M 6.53125 -3.671875 L 5.28125 -7.359375 L 4.046875 -3.671875 Z M 6.53125 -3.671875 "/></g></g></g><g fill="#dbd0e1" fill-opacity="1"><g transform="translate(321.583862, 67.934679)"><g><path d="M 3.34375 -10.078125 L 3.34375 0 L 0.890625 0 L 0.890625 -10.078125 Z M 3.34375 -10.078125 "/></g></g></g><g fill="#dbd0e1" fill-opacity="1"><g transform="translate(434.162418, 48.080395)"><g><path d="M 6.96875 -3.65625 C 6.96875 -2.894531 6.832031 -2.226562 6.5625 -1.65625 C 6.300781 -1.09375 5.921875 -0.65625 5.421875 -0.34375 C 4.929688 -0.0390625 4.363281 0.109375 3.71875 0.109375 C 3.082031 0.109375 2.515625 -0.0390625 2.015625 -0.34375 C 1.523438 -0.65625 1.140625 -1.09375 0.859375 -1.65625 C 0.585938 -2.21875 0.453125 -2.867188 0.453125 -3.609375 L 0.453125 -3.984375 C 0.453125 -4.742188 0.585938 -5.410156 0.859375 -5.984375 C 1.128906 -6.554688 1.507812 -6.992188 2 -7.296875 C 2.5 -7.609375 3.066406 -7.765625 3.703125 -7.765625 C 4.347656 -7.765625 4.914062 -7.609375 5.40625 -7.296875 C 5.90625 -6.992188 6.289062 -6.554688 6.5625 -5.984375 C 6.832031 -5.410156 6.96875 -4.75 6.96875 -4 Z M 5.375 -4 C 5.375 -4.800781 5.226562 -5.410156 4.9375 -5.828125 C 4.65625 -6.242188 4.25 -6.453125 3.71875 -6.453125 C 3.1875 -6.453125 2.773438 -6.242188 2.484375 -5.828125 C 2.203125 -5.421875 2.054688 -4.820312 2.046875 -4.03125 L 2.046875 -3.65625 C 2.046875 -2.875 2.1875 -2.265625 2.46875 -1.828125 C 2.757812 -1.398438 3.175781 -1.1875 3.71875 -1.1875 C 4.25 -1.1875 4.65625 -1.394531 4.9375 -1.8125 C 5.21875 -2.226562 5.363281 -2.832031 5.375 -3.625 Z M 5.375 -4 "/></g></g><g transform="translate(441.595598, 48.080395)"><g><path d="M 5.703125 -2.796875 C 5.703125 -1.921875 5.503906 -1.21875 5.109375 -0.6875 C 4.710938 -0.15625 4.175781 0.109375 3.5 0.109375 C 2.925781 0.109375 2.460938 -0.09375 2.109375 -0.5 L 2.109375 2.1875 L 0.578125 2.1875 L 0.578125 -5.6875 L 2 -5.6875 L 2.046875 -5.125 C 2.410156 -5.570312 2.890625 -5.796875 3.484375 -5.796875 C 4.179688 -5.796875 4.722656 -5.535156 5.109375 -5.015625 C 5.503906 -4.492188 5.703125 -3.78125 5.703125 -2.875 Z M 4.1875 -2.90625 C 4.1875 -3.4375 4.09375 -3.84375 3.90625 -4.125 C 3.71875 -4.414062 3.441406 -4.5625 3.078125 -4.5625 C 2.609375 -4.5625 2.285156 -4.378906 2.109375 -4.015625 L 2.109375 -1.6875 C 2.285156 -1.3125 2.613281 -1.125 3.09375 -1.125 C 3.820312 -1.125 4.1875 -1.71875 4.1875 -2.90625 Z M 4.1875 -2.90625 "/></g></g><g transform="translate(447.656741, 48.080395)"><g><path d="M 3.203125 0.109375 C 2.367188 0.109375 1.6875 -0.144531 1.15625 -0.65625 C 0.632812 -1.175781 0.375 -1.859375 0.375 -2.703125 L 0.375 -2.859375 C 0.375 -3.429688 0.484375 -3.941406 0.703125 -4.390625 C 0.929688 -4.835938 1.242188 -5.179688 1.640625 -5.421875 C 2.046875 -5.671875 2.507812 -5.796875 3.03125 -5.796875 C 3.8125 -5.796875 4.425781 -5.550781 4.875 -5.0625 C 5.320312 -4.570312 5.546875 -3.875 5.546875 -2.96875 L 5.546875 -2.34375 L 1.921875 -2.34375 C 1.972656 -1.976562 2.117188 -1.679688 2.359375 -1.453125 C 2.609375 -1.234375 2.921875 -1.125 3.296875 -1.125 C 3.878906 -1.125 4.335938 -1.332031 4.671875 -1.75 L 5.421875 -0.921875 C 5.191406 -0.597656 4.878906 -0.34375 4.484375 -0.15625 C 4.097656 0.0195312 3.671875 0.109375 3.203125 0.109375 Z M 3.03125 -4.5625 C 2.726562 -4.5625 2.484375 -4.457031 2.296875 -4.25 C 2.109375 -4.050781 1.988281 -3.765625 1.9375 -3.390625 L 4.046875 -3.390625 L 4.046875 -3.5 C 4.035156 -3.84375 3.941406 -4.101562 3.765625 -4.28125 C 3.597656 -4.46875 3.351562 -4.5625 3.03125 -4.5625 Z M 3.03125 -4.5625 "/></g></g><g transform="translate(453.47607, 48.080395)"><g><path d="M 1.984375 -5.6875 L 2.03125 -5.03125 C 2.4375 -5.539062 2.976562 -5.796875 3.65625 -5.796875 C 4.257812 -5.796875 4.707031 -5.617188 5 -5.265625 C 5.300781 -4.910156 5.457031 -4.378906 5.46875 -3.671875 L 5.46875 0 L 3.9375 0 L 3.9375 -3.640625 C 3.9375 -3.960938 3.863281 -4.195312 3.71875 -4.34375 C 3.582031 -4.488281 3.351562 -4.5625 3.03125 -4.5625 C 2.601562 -4.5625 2.285156 -4.378906 2.078125 -4.015625 L 2.078125 0 L 0.546875 0 L 0.546875 -5.6875 Z M 1.984375 -5.6875 "/></g></g><g transform="translate(459.505672, 48.080395)"><g/></g><g transform="translate(462.186664, 48.080395)"><g><path d="M 4.65625 -2.015625 C 4.65625 -2.304688 4.546875 -2.53125 4.328125 -2.6875 C 4.117188 -2.851562 3.738281 -3.023438 3.1875 -3.203125 C 2.644531 -3.378906 2.21875 -3.550781 1.90625 -3.71875 C 1.03125 -4.1875 0.59375 -4.820312 0.59375 -5.625 C 0.59375 -6.03125 0.707031 -6.394531 0.9375 -6.71875 C 1.175781 -7.050781 1.515625 -7.304688 1.953125 -7.484375 C 2.390625 -7.671875 2.878906 -7.765625 3.421875 -7.765625 C 3.960938 -7.765625 4.445312 -7.664062 4.875 -7.46875 C 5.3125 -7.269531 5.644531 -6.988281 5.875 -6.625 C 6.113281 -6.257812 6.234375 -5.847656 6.234375 -5.390625 L 4.65625 -5.390625 C 4.65625 -5.742188 4.546875 -6.015625 4.328125 -6.203125 C 4.109375 -6.398438 3.796875 -6.5 3.390625 -6.5 C 3.003906 -6.5 2.703125 -6.414062 2.484375 -6.25 C 2.273438 -6.09375 2.171875 -5.878906 2.171875 -5.609375 C 2.171875 -5.359375 2.296875 -5.148438 2.546875 -4.984375 C 2.796875 -4.816406 3.164062 -4.660156 3.65625 -4.515625 C 4.550781 -4.242188 5.203125 -3.90625 5.609375 -3.5 C 6.023438 -3.101562 6.234375 -2.609375 6.234375 -2.015625 C 6.234375 -1.359375 5.984375 -0.835938 5.484375 -0.453125 C 4.984375 -0.078125 4.304688 0.109375 3.453125 0.109375 C 2.867188 0.109375 2.332031 0 1.84375 -0.21875 C 1.363281 -0.4375 0.992188 -0.734375 0.734375 -1.109375 C 0.484375 -1.484375 0.359375 -1.914062 0.359375 -2.40625 L 1.9375 -2.40625 C 1.9375 -1.5625 2.441406 -1.140625 3.453125 -1.140625 C 3.828125 -1.140625 4.117188 -1.210938 4.328125 -1.359375 C 4.546875 -1.515625 4.65625 -1.734375 4.65625 -2.015625 Z M 4.65625 -2.015625 "/></g></g><g transform="translate(468.805033, 48.080395)"><g><path d="M 0.34375 -2.890625 C 0.34375 -3.460938 0.453125 -3.96875 0.671875 -4.40625 C 0.890625 -4.84375 1.203125 -5.179688 1.609375 -5.421875 C 2.015625 -5.671875 2.488281 -5.796875 3.03125 -5.796875 C 3.800781 -5.796875 4.425781 -5.5625 4.90625 -5.09375 C 5.394531 -4.625 5.664062 -3.984375 5.71875 -3.171875 L 5.734375 -2.78125 C 5.734375 -1.914062 5.488281 -1.21875 5 -0.6875 C 4.519531 -0.15625 3.867188 0.109375 3.046875 0.109375 C 2.222656 0.109375 1.566406 -0.148438 1.078125 -0.671875 C 0.585938 -1.203125 0.34375 -1.921875 0.34375 -2.828125 Z M 1.859375 -2.78125 C 1.859375 -2.238281 1.957031 -1.828125 2.15625 -1.546875 C 2.363281 -1.265625 2.660156 -1.125 3.046875 -1.125 C 3.410156 -1.125 3.695312 -1.265625 3.90625 -1.546875 C 4.113281 -1.828125 4.21875 -2.273438 4.21875 -2.890625 C 4.21875 -3.421875 4.113281 -3.832031 3.90625 -4.125 C 3.695312 -4.414062 3.40625 -4.5625 3.03125 -4.5625 C 2.65625 -4.5625 2.363281 -4.414062 2.15625 -4.125 C 1.957031 -3.84375 1.859375 -3.394531 1.859375 -2.78125 Z M 1.859375 -2.78125 "/></g></g><g transform="translate(474.89246, 48.080395)"><g><path d="M 3.984375 -0.578125 C 3.609375 -0.117188 3.09375 0.109375 2.4375 0.109375 C 1.820312 0.109375 1.351562 -0.0664062 1.03125 -0.421875 C 0.71875 -0.773438 0.554688 -1.285156 0.546875 -1.953125 L 0.546875 -5.6875 L 2.0625 -5.6875 L 2.0625 -2.015625 C 2.0625 -1.421875 2.332031 -1.125 2.875 -1.125 C 3.382812 -1.125 3.738281 -1.300781 3.9375 -1.65625 L 3.9375 -5.6875 L 5.46875 -5.6875 L 5.46875 0 L 4.03125 0 Z M 3.984375 -0.578125 "/></g></g><g transform="translate(480.916806, 48.080395)"><g><path d="M 3.78125 -4.265625 C 3.570312 -4.296875 3.390625 -4.3125 3.234375 -4.3125 C 2.660156 -4.3125 2.285156 -4.113281 2.109375 -3.71875 L 2.109375 0 L 0.578125 0 L 0.578125 -5.6875 L 2.015625 -5.6875 L 2.0625 -5.015625 C 2.363281 -5.535156 2.785156 -5.796875 3.328125 -5.796875 C 3.492188 -5.796875 3.648438 -5.769531 3.796875 -5.71875 Z M 3.78125 -4.265625 "/></g></g><g transform="translate(484.84367, 48.080395)"><g><path d="M 2.953125 -1.125 C 3.234375 -1.125 3.457031 -1.195312 3.625 -1.34375 C 3.800781 -1.5 3.894531 -1.707031 3.90625 -1.96875 L 5.328125 -1.96875 C 5.328125 -1.582031 5.222656 -1.226562 5.015625 -0.90625 C 4.804688 -0.582031 4.519531 -0.332031 4.15625 -0.15625 C 3.800781 0.0195312 3.40625 0.109375 2.96875 0.109375 C 2.15625 0.109375 1.515625 -0.148438 1.046875 -0.671875 C 0.578125 -1.191406 0.34375 -1.90625 0.34375 -2.8125 L 0.34375 -2.90625 C 0.34375 -3.78125 0.578125 -4.476562 1.046875 -5 C 1.515625 -5.53125 2.15625 -5.796875 2.96875 -5.796875 C 3.675781 -5.796875 4.242188 -5.59375 4.671875 -5.1875 C 5.097656 -4.78125 5.316406 -4.238281 5.328125 -3.5625 L 3.90625 -3.5625 C 3.894531 -3.863281 3.800781 -4.101562 3.625 -4.28125 C 3.457031 -4.46875 3.226562 -4.5625 2.9375 -4.5625 C 2.582031 -4.5625 2.3125 -4.429688 2.125 -4.171875 C 1.945312 -3.921875 1.859375 -3.503906 1.859375 -2.921875 L 1.859375 -2.765625 C 1.859375 -2.179688 1.945312 -1.757812 2.125 -1.5 C 2.3125 -1.25 2.585938 -1.125 2.953125 -1.125 Z M 2.953125 -1.125 "/></g></g><g transform="translate(490.457981, 48.080395)"><g><path d="M 3.203125 0.109375 C 2.367188 0.109375 1.6875 -0.144531 1.15625 -0.65625 C 0.632812 -1.175781 0.375 -1.859375 0.375 -2.703125 L 0.375 -2.859375 C 0.375 -3.429688 0.484375 -3.941406 0.703125 -4.390625 C 0.929688 -4.835938 1.242188 -5.179688 1.640625 -5.421875 C 2.046875 -5.671875 2.507812 -5.796875 3.03125 -5.796875 C 3.8125 -5.796875 4.425781 -5.550781 4.875 -5.0625 C 5.320312 -4.570312 5.546875 -3.875 5.546875 -2.96875 L 5.546875 -2.34375 L 1.921875 -2.34375 C 1.972656 -1.976562 2.117188 -1.679688 2.359375 -1.453125 C 2.609375 -1.234375 2.921875 -1.125 3.296875 -1.125 C 3.878906 -1.125 4.335938 -1.332031 4.671875 -1.75 L 5.421875 -0.921875 C 5.191406 -0.597656 4.878906 -0.34375 4.484375 -0.15625 C 4.097656 0.0195312 3.671875 0.109375 3.203125 0.109375 Z M 3.03125 -4.5625 C 2.726562 -4.5625 2.484375 -4.457031 2.296875 -4.25 C 2.109375 -4.050781 1.988281 -3.765625 1.9375 -3.390625 L 4.046875 -3.390625 L 4.046875 -3.5 C 4.035156 -3.84375 3.941406 -4.101562 3.765625 -4.28125 C 3.597656 -4.46875 3.351562 -4.5625 3.03125 -4.5625 Z M 3.03125 -4.5625 "/></g></g></g><g fill="#dbd0e1" fill-opacity="1"><g transform="translate(447.80919, 62.883674)"><g><path d="M 2.265625 -2.703125 L 2.265625 0 L 0.6875 0 L 0.6875 -7.65625 L 3.671875 -7.65625 C 4.242188 -7.65625 4.75 -7.546875 5.1875 -7.328125 C 5.625 -7.117188 5.957031 -6.820312 6.1875 -6.4375 C 6.425781 -6.050781 6.546875 -5.613281 6.546875 -5.125 C 6.546875 -4.375 6.285156 -3.78125 5.765625 -3.34375 C 5.253906 -2.914062 4.546875 -2.703125 3.640625 -2.703125 Z M 2.265625 -3.96875 L 3.671875 -3.96875 C 4.085938 -3.96875 4.40625 -4.066406 4.625 -4.265625 C 4.84375 -4.460938 4.953125 -4.742188 4.953125 -5.109375 C 4.953125 -5.484375 4.84375 -5.785156 4.625 -6.015625 C 4.40625 -6.242188 4.097656 -6.363281 3.703125 -6.375 L 2.265625 -6.375 Z M 2.265625 -3.96875 "/></g></g><g transform="translate(454.753483, 62.883674)"><g><path d="M 3.78125 -4.265625 C 3.570312 -4.296875 3.390625 -4.3125 3.234375 -4.3125 C 2.660156 -4.3125 2.285156 -4.113281 2.109375 -3.71875 L 2.109375 0 L 0.578125 0 L 0.578125 -5.6875 L 2.015625 -5.6875 L 2.0625 -5.015625 C 2.363281 -5.535156 2.785156 -5.796875 3.328125 -5.796875 C 3.492188 -5.796875 3.648438 -5.769531 3.796875 -5.71875 Z M 3.78125 -4.265625 "/></g></g><g transform="translate(458.680347, 62.883674)"><g><path d="M 0.34375 -2.890625 C 0.34375 -3.460938 0.453125 -3.96875 0.671875 -4.40625 C 0.890625 -4.84375 1.203125 -5.179688 1.609375 -5.421875 C 2.015625 -5.671875 2.488281 -5.796875 3.03125 -5.796875 C 3.800781 -5.796875 4.425781 -5.5625 4.90625 -5.09375 C 5.394531 -4.625 5.664062 -3.984375 5.71875 -3.171875 L 5.734375 -2.78125 C 5.734375 -1.914062 5.488281 -1.21875 5 -0.6875 C 4.519531 -0.15625 3.867188 0.109375 3.046875 0.109375 C 2.222656 0.109375 1.566406 -0.148438 1.078125 -0.671875 C 0.585938 -1.203125 0.34375 -1.921875 0.34375 -2.828125 Z M 1.859375 -2.78125 C 1.859375 -2.238281 1.957031 -1.828125 2.15625 -1.546875 C 2.363281 -1.265625 2.660156 -1.125 3.046875 -1.125 C 3.410156 -1.125 3.695312 -1.265625 3.90625 -1.546875 C 4.113281 -1.828125 4.21875 -2.273438 4.21875 -2.890625 C 4.21875 -3.421875 4.113281 -3.832031 3.90625 -4.125 C 3.695312 -4.414062 3.40625 -4.5625 3.03125 -4.5625 C 2.65625 -4.5625 2.363281 -4.414062 2.15625 -4.125 C 1.957031 -3.84375 1.859375 -3.394531 1.859375 -2.78125 Z M 1.859375 -2.78125 "/></g></g><g transform="translate(464.767775, 62.883674)"><g><path d="M 2.1875 -5.6875 L 2.1875 0.3125 C 2.1875 0.9375 2.019531 1.421875 1.6875 1.765625 C 1.351562 2.117188 0.875 2.296875 0.25 2.296875 C -0.0078125 2.296875 -0.257812 2.265625 -0.5 2.203125 L -0.5 1 C -0.3125 1.03125 -0.148438 1.046875 -0.015625 1.046875 C 0.441406 1.046875 0.671875 0.804688 0.671875 0.328125 L 0.671875 -5.6875 Z M 0.546875 -7.15625 C 0.546875 -7.382812 0.617188 -7.570312 0.765625 -7.71875 C 0.921875 -7.863281 1.128906 -7.9375 1.390625 -7.9375 C 1.660156 -7.9375 1.867188 -7.863281 2.015625 -7.71875 C 2.171875 -7.570312 2.25 -7.382812 2.25 -7.15625 C 2.25 -6.925781 2.171875 -6.738281 2.015625 -6.59375 C 1.859375 -6.445312 1.648438 -6.375 1.390625 -6.375 C 1.140625 -6.375 0.9375 -6.445312 0.78125 -6.59375 C 0.625 -6.738281 0.546875 -6.925781 0.546875 -7.15625 Z M 0.546875 -7.15625 "/></g></g><g transform="translate(467.564417, 62.883674)"><g><path d="M 3.203125 0.109375 C 2.367188 0.109375 1.6875 -0.144531 1.15625 -0.65625 C 0.632812 -1.175781 0.375 -1.859375 0.375 -2.703125 L 0.375 -2.859375 C 0.375 -3.429688 0.484375 -3.941406 0.703125 -4.390625 C 0.929688 -4.835938 1.242188 -5.179688 1.640625 -5.421875 C 2.046875 -5.671875 2.507812 -5.796875 3.03125 -5.796875 C 3.8125 -5.796875 4.425781 -5.550781 4.875 -5.0625 C 5.320312 -4.570312 5.546875 -3.875 5.546875 -2.96875 L 5.546875 -2.34375 L 1.921875 -2.34375 C 1.972656 -1.976562 2.117188 -1.679688 2.359375 -1.453125 C 2.609375 -1.234375 2.921875 -1.125 3.296875 -1.125 C 3.878906 -1.125 4.335938 -1.332031 4.671875 -1.75 L 5.421875 -0.921875 C 5.191406 -0.597656 4.878906 -0.34375 4.484375 -0.15625 C 4.097656 0.0195312 3.671875 0.109375 3.203125 0.109375 Z M 3.03125 -4.5625 C 2.726562 -4.5625 2.484375 -4.457031 2.296875 -4.25 C 2.109375 -4.050781 1.988281 -3.765625 1.9375 -3.390625 L 4.046875 -3.390625 L 4.046875 -3.5 C 4.035156 -3.84375 3.941406 -4.101562 3.765625 -4.28125 C 3.597656 -4.46875 3.351562 -4.5625 3.03125 -4.5625 Z M 3.03125 -4.5625 "/></g></g><g transform="translate(473.383746, 62.883674)"><g><path d="M 2.953125 -1.125 C 3.234375 -1.125 3.457031 -1.195312 3.625 -1.34375 C 3.800781 -1.5 3.894531 -1.707031 3.90625 -1.96875 L 5.328125 -1.96875 C 5.328125 -1.582031 5.222656 -1.226562 5.015625 -0.90625 C 4.804688 -0.582031 4.519531 -0.332031 4.15625 -0.15625 C 3.800781 0.0195312 3.40625 0.109375 2.96875 0.109375 C 2.15625 0.109375 1.515625 -0.148438 1.046875 -0.671875 C 0.578125 -1.191406 0.34375 -1.90625 0.34375 -2.8125 L 0.34375 -2.90625 C 0.34375 -3.78125 0.578125 -4.476562 1.046875 -5 C 1.515625 -5.53125 2.15625 -5.796875 2.96875 -5.796875 C 3.675781 -5.796875 4.242188 -5.59375 4.671875 -5.1875 C 5.097656 -4.78125 5.316406 -4.238281 5.328125 -3.5625 L 3.90625 -3.5625 C 3.894531 -3.863281 3.800781 -4.101562 3.625 -4.28125 C 3.457031 -4.46875 3.226562 -4.5625 2.9375 -4.5625 C 2.582031 -4.5625 2.3125 -4.429688 2.125 -4.171875 C 1.945312 -3.921875 1.859375 -3.503906 1.859375 -2.921875 L 1.859375 -2.765625 C 1.859375 -2.179688 1.945312 -1.757812 2.125 -1.5 C 2.3125 -1.25 2.585938 -1.125 2.953125 -1.125 Z M 2.953125 -1.125 "/></g></g><g transform="translate(478.998057, 62.883674)"><g><path d="M 2.40625 -7.09375 L 2.40625 -5.6875 L 3.375 -5.6875 L 3.375 -4.578125 L 2.40625 -4.578125 L 2.40625 -1.734375 C 2.40625 -1.523438 2.441406 -1.375 2.515625 -1.28125 C 2.597656 -1.1875 2.753906 -1.140625 2.984375 -1.140625 C 3.148438 -1.140625 3.300781 -1.15625 3.4375 -1.1875 L 3.4375 -0.03125 C 3.132812 0.0625 2.828125 0.109375 2.515625 0.109375 C 1.453125 0.109375 0.910156 -0.429688 0.890625 -1.515625 L 0.890625 -4.578125 L 0.046875 -4.578125 L 0.046875 -5.6875 L 0.890625 -5.6875 L 0.890625 -7.09375 Z M 2.40625 -7.09375 "/></g></g></g><g clip-path="url(#d9785717fa)"><path fill="#dbd0e1" d="M 408.398438 34.296875 C 418.425781 34.296875 426.554688 42.425781 426.554688 52.449219 C 426.554688 60.773438 420.953125 67.789062 413.3125 69.929688 L 409.917969 57.855469 C 412.28125 57.191406 414.011719 55.023438 414.011719 52.449219 C 414.011719 49.351562 411.5 46.839844 408.398438 46.839844 C 405.300781 46.839844 402.789062 49.351562 402.789062 52.449219 C 402.789062 55.023438 404.519531 57.191406 406.878906 57.855469 L 403.484375 69.929688 C 395.847656 67.789062 390.246094 60.773438 390.246094 52.449219 C 390.246094 42.425781 398.375 34.296875 408.398438 34.296875 Z M 408.398438 34.296875 " fill-opacity="1" fill-rule="evenodd"/></g><g fill="#dbd0e1" fill-opacity="1"><g transform="translate(223.077209, 111.970913)"><g><path d="M 10.453125 0.296875 C 7.035156 0.296875 4.519531 -0.40625 2.90625 -1.8125 C 1.476562 -3.050781 0.765625 -4.75 0.765625 -6.90625 C 0.765625 -9.050781 1.476562 -10.75 2.90625 -12 C 4.519531 -13.394531 7.035156 -14.09375 10.453125 -14.09375 C 12.460938 -14.09375 14.117188 -13.863281 15.421875 -13.40625 C 16.734375 -12.945312 17.753906 -12.316406 18.484375 -11.515625 C 19.210938 -10.722656 19.691406 -9.8125 19.921875 -8.78125 L 13.828125 -8.78125 C 13.210938 -9.851562 12.085938 -10.390625 10.453125 -10.390625 C 9.054688 -10.390625 8.023438 -9.988281 7.359375 -9.1875 C 6.835938 -8.539062 6.578125 -7.78125 6.578125 -6.90625 C 6.578125 -6.019531 6.835938 -5.253906 7.359375 -4.609375 C 8.023438 -3.804688 9.054688 -3.40625 10.453125 -3.40625 C 12.085938 -3.40625 13.210938 -3.941406 13.828125 -5.015625 L 19.921875 -5.015625 C 19.691406 -3.984375 19.210938 -3.066406 18.484375 -2.265625 C 17.753906 -1.472656 16.734375 -0.847656 15.421875 -0.390625 C 14.117188 0.0664062 12.460938 0.296875 10.453125 0.296875 Z M 10.453125 0.296875 "/></g></g><g transform="translate(243.778668, 111.970913)"><g/></g><g transform="translate(248.674544, 111.970913)"><g><path d="M 17.6875 0 L 1.546875 0 L 1.546875 -13.828125 L 7.34375 -13.828125 L 7.34375 -3.421875 L 17.6875 -3.421875 Z M 17.6875 0 "/></g></g><g transform="translate(266.744952, 111.970913)"><g/></g><g transform="translate(271.640828, 111.970913)"><g><path d="M 10.453125 0.296875 C 7.035156 0.296875 4.519531 -0.40625 2.90625 -1.8125 C 1.476562 -3.0625 0.765625 -4.757812 0.765625 -6.90625 C 0.765625 -9.050781 1.476562 -10.75 2.90625 -12 C 4.519531 -13.40625 7.035156 -14.109375 10.453125 -14.109375 C 13.867188 -14.109375 16.382812 -13.40625 18 -12 C 19.425781 -10.75 20.140625 -9.050781 20.140625 -6.90625 C 20.140625 -4.757812 19.425781 -3.0625 18 -1.8125 C 16.382812 -0.40625 13.867188 0.296875 10.453125 0.296875 Z M 10.453125 -3.40625 C 11.859375 -3.40625 12.882812 -3.804688 13.53125 -4.609375 C 14.0625 -5.265625 14.328125 -6.03125 14.328125 -6.90625 C 14.328125 -7.789062 14.0625 -8.550781 13.53125 -9.1875 C 12.882812 -10 11.859375 -10.40625 10.453125 -10.40625 C 9.054688 -10.40625 8.023438 -10 7.359375 -9.1875 C 6.835938 -8.550781 6.578125 -7.789062 6.578125 -6.90625 C 6.578125 -6.03125 6.835938 -5.265625 7.359375 -4.609375 C 8.023438 -3.804688 9.054688 -3.40625 10.453125 -3.40625 Z M 10.453125 -3.40625 "/></g></g><g transform="translate(292.554314, 111.970913)"><g/></g><g transform="translate(297.45019, 111.970913)"><g><path d="M 9.71875 0.296875 C 6.34375 0.296875 3.972656 -0.398438 2.609375 -1.796875 C 1.453125 -2.972656 0.875 -4.675781 0.875 -6.90625 L 0.875 -13.8125 L 6.671875 -13.8125 L 6.671875 -6.90625 C 6.671875 -5.9375 6.832031 -5.171875 7.15625 -4.609375 C 7.625 -3.804688 8.476562 -3.40625 9.71875 -3.40625 C 10.976562 -3.40625 11.835938 -3.804688 12.296875 -4.609375 C 12.617188 -5.191406 12.78125 -5.957031 12.78125 -6.90625 L 12.78125 -13.8125 L 18.59375 -13.8125 L 18.59375 -6.828125 C 18.59375 -4.648438 18.015625 -2.972656 16.859375 -1.796875 C 15.484375 -0.398438 13.101562 0.296875 9.71875 0.296875 Z M 9.71875 0.296875 "/></g></g><g transform="translate(316.908405, 111.970913)"><g/></g><g transform="translate(321.804281, 111.970913)"><g><path d="M 10.796875 0 L 1.546875 0 L 1.546875 -13.828125 L 10.796875 -13.828125 C 14.578125 -13.828125 17.296875 -13.296875 18.953125 -12.234375 C 20.285156 -11.378906 21.046875 -10.21875 21.234375 -8.75 C 21.316406 -8.113281 21.359375 -7.5 21.359375 -6.90625 C 21.359375 -6.320312 21.316406 -5.707031 21.234375 -5.0625 C 21.160156 -4.425781 20.945312 -3.804688 20.59375 -3.203125 C 20.25 -2.609375 19.695312 -2.070312 18.9375 -1.59375 C 18.1875 -1.113281 17.15625 -0.726562 15.84375 -0.4375 C 14.53125 -0.144531 12.847656 0 10.796875 0 Z M 10.25 -3.421875 C 13.195312 -3.421875 14.863281 -4.164062 15.25 -5.65625 C 15.34375 -6.070312 15.390625 -6.488281 15.390625 -6.90625 C 15.390625 -7.332031 15.335938 -7.75 15.234375 -8.15625 C 15.128906 -8.570312 14.90625 -8.945312 14.5625 -9.28125 C 14.21875 -9.625 13.703125 -9.894531 13.015625 -10.09375 C 12.328125 -10.300781 11.40625 -10.40625 10.25 -10.40625 L 7.34375 -10.40625 L 7.34375 -3.421875 Z M 10.25 -3.421875 "/></g></g></g><g fill="#dbd0e1" fill-opacity="1"><g transform="translate(343.942614, 111.970913)"><g/></g><g transform="translate(348.83849, 111.970913)"><g/></g><g transform="translate(353.734366, 111.970913)"><g/></g></g><g fill="#dbd0e1" fill-opacity="1"><g transform="translate(358.633746, 111.970913)"><g><path d="M 22.0625 0 L 15.15625 0 L 7.34375 -9.359375 L 7.34375 0 L 1.546875 0 L 1.546875 -13.828125 L 8.4375 -13.828125 L 16.25 -4.515625 L 16.25 -13.828125 L 22.0625 -13.828125 Z M 22.0625 0 "/></g></g><g transform="translate(382.236108, 111.970913)"><g/></g><g transform="translate(387.131984, 111.970913)"><g><path d="M 23.21875 0 L 17.34375 0 L 16.046875 -2.265625 L 7.328125 -2.265625 L 6.015625 0 L 0.140625 0 L 8.984375 -13.8125 L 14.375 -13.8125 Z M 14.09375 -5.6875 L 11.6875 -9.875 L 9.28125 -5.6875 Z M 14.09375 -5.6875 "/></g></g><g transform="translate(410.503045, 111.970913)"><g/></g><g transform="translate(415.398921, 111.970913)"><g><path d="M 11.796875 0 L 6 0 L 6 -10.40625 L 0.578125 -10.40625 L 0.578125 -13.828125 L 17.203125 -13.828125 L 17.203125 -10.40625 L 11.796875 -10.40625 Z M 11.796875 0 "/></g></g><g transform="translate(433.18984, 111.970913)"><g/></g><g transform="translate(438.085716, 111.970913)"><g><path d="M 7.34375 0 L 1.546875 0 L 1.546875 -13.828125 L 7.34375 -13.828125 Z M 7.34375 0 "/></g></g><g transform="translate(446.971538, 111.970913)"><g/></g><g transform="translate(451.867414, 111.970913)"><g><path d="M 13.28125 0 L 7.890625 0 L 0.140625 -13.8125 L 6.015625 -13.8125 L 10.59375 -3.9375 L 15.140625 -13.8125 L 21.03125 -13.8125 Z M 13.28125 0 "/></g></g><g transform="translate(473.041114, 111.970913)"><g/></g><g transform="translate(477.93699, 111.970913)"><g><path d="M 18.1875 0 L 1.546875 0 L 1.546875 -13.828125 L 17.4375 -13.828125 L 17.4375 -10.40625 L 7.34375 -10.40625 L 7.34375 -8.234375 L 15.875 -8.234375 L 15.875 -5.578125 L 7.34375 -5.578125 L 7.34375 -3.421875 L 18.1875 -3.421875 Z M 18.1875 0 "/></g></g></g><g mask="url(#0079bb12a6)"><g transform="matrix(1, 0, 0, 1, 230, 83)"><g clip-path="url(#003a633c9d)"><g clip-path="url(#fe03d89375)"><path stroke-linecap="butt" transform="matrix(0.448584, 0, 0, 0.448584, 0.736291, 0.993977)" fill="none" stroke-linejoin="miter" d="M -0.00427203 0.501073 L 575.391132 0.501073 " stroke="#ffffff" stroke-width="1" stroke-opacity="1" stroke-miterlimit="4"/></g></g></g></g><g mask="url(#36687a635b)"><g transform="matrix(1, 0, 0, 1, 537, 49)"><g clip-path="url(#19599a6c4e)"><g clip-path="url(#04d40be23b)"><g mask="url(#940aff2aa4)"><g transform="matrix(1, 0, 0, 1, 87, -0.000000000000007105)"><g clip-path="url(#e1d2611580)"><g clip-path="url(#f31b87b608)"><g clip-path="url(#e7d358ce77)"><path fill="#ffffff" d="M 0.511719 66.339844 L 0.511719 0.882812 L 71.597656 0.882812 L 71.597656 66.339844 Z M 0.511719 66.339844 " fill-opacity="1" fill-rule="nonzero"/></g></g></g></g></g></g><g clip-path="url(#b898f757b5)"><g mask="url(#f12aa51074)"><g transform="matrix(1, 0, 0, 1, 36, -0.000000000000007105)"><g clip-path="url(#4154fe85a4)"><g clip-path="url(#86219a118a)"><g clip-path="url(#ce4b189a1f)"><path fill="#ffffff" d="M 0.511719 33.613281 L 0.511719 0.882812 L 36.054688 0.882812 L 36.054688 33.613281 Z M 0.511719 33.613281 " fill-opacity="1" fill-rule="nonzero"/></g></g></g></g></g></g><g mask="url(#eb797cdc1e)"><g transform="matrix(1, 0, 0, 1, 36, 66)"><g clip-path="url(#497ba3bc5e)"><g clip-path="url(#a4c011c4bc)"><g clip-path="url(#f63f02350b)"><path fill="#ffffff" d="M 0.511719 47.375 L 0.511719 0.339844 L 51.585938 0.339844 L 51.585938 47.375 Z M 0.511719 47.375 " fill-opacity="1" fill-rule="nonzero"/></g></g></g></g></g><g clip-path="url(#47bf4d666b)"><g mask="url(#a1dfde740e)"><g transform="matrix(1, 0, 0, 1, -0.000000000000113687, 33)"><g clip-path="url(#3e694af1fc)"><g clip-path="url(#243aac4a50)"><g clip-path="url(#136a7e8042)"><path fill="#ffffff" d="M 1.023438 33.339844 L 1.023438 0.613281 L 36.566406 0.613281 L 36.566406 33.339844 Z M 1.023438 33.339844 " fill-opacity="1" fill-rule="nonzero"/></g></g></g></g></g></g><g mask="url(#0dd8896d9f)"><g transform="matrix(1, 0, 0, 1, 158, 66)"><g clip-path="url(#f6945a8c46)"><g clip-path="url(#975d03b954)"><g clip-path="url(#b8c4b0e655)"><path fill="#ffffff" d="M 0.488281 0.34375 L 114.980469 0.34375 L 114.980469 105.773438 L 0.488281 105.773438 Z M 0.488281 0.34375 " fill-opacity="1" fill-rule="nonzero"/></g></g></g></g></g><g clip-path="url(#f2e2a9ec64)"><g mask="url(#e036a20d17)"><g transform="matrix(1, 0, 0, 1, 87, -0.000000000000007105)"><g clip-path="url(#3562ba9860)"><g clip-path="url(#c280f321a1)"><g clip-path="url(#07f3bbe080)"><path fill="#ffffff" d="M 0.507812 0.882812 L 71.59375 0.882812 L 71.59375 66.34375 L 0.507812 66.34375 Z M 0.507812 0.882812 " fill-opacity="1" fill-rule="nonzero"/></g></g></g></g></g></g><g mask="url(#14de54b298)"><g transform="matrix(1, 0, 0, 1, 36, 66)"><g clip-path="url(#b1eab251a1)"><g clip-path="url(#2f0da9405b)"><g clip-path="url(#754e3a070f)"><path fill="#ffffff" d="M 0.511719 0.34375 L 51.585938 0.34375 L 51.585938 47.375 L 0.511719 47.375 Z M 0.511719 0.34375 " fill-opacity="1" fill-rule="nonzero"/></g></g></g></g></g><g clip-path="url(#b3354592f9)"><g mask="url(#6804ebc2a0)"><g transform="matrix(1, 0, 0, 1, 36, -0.000000000000007105)"><g clip-path="url(#0661d126bd)"><g clip-path="url(#56dd3e70f7)"><g clip-path="url(#3e0572ca36)"><path fill="#ffffff" d="M 0.511719 0.882812 L 36.054688 0.882812 L 36.054688 33.613281 L 0.511719 33.613281 Z M 0.511719 0.882812 " fill-opacity="1" fill-rule="nonzero"/></g></g></g></g></g></g><g clip-path="url(#9386aa463d)"><g mask="url(#2b221e4d99)"><g transform="matrix(1, 0, 0, 1, -0.000000000000113687, 33)"><g clip-path="url(#23d5555c95)"><g clip-path="url(#ab3dbb9788)"><g clip-path="url(#10ba873e91)"><path fill="#ffffff" d="M 1.023438 0.613281 L 36.566406 0.613281 L 36.566406 33.34375 L 1.023438 33.34375 Z M 1.023438 0.613281 " fill-opacity="1" fill-rule="nonzero"/></g></g></g></g></g></g></g></g></g></svg>