<svg xmlns="http://www.w3.org/2000/svg" xmlns:xlink="http://www.w3.org/1999/xlink" width="960" zoomAndPan="magnify" viewBox="0 0 720 149.999998" height="200" preserveAspectRatio="xMidYMid meet" version="1.0"><defs><filter x="0%" y="0%" width="100%" height="100%" id="332eff02d0"><feColorMatrix values="0 0 0 0 1 0 0 0 0 1 0 0 0 0 1 0 0 0 1 0" color-interpolation-filters="sRGB"/></filter><g/><linearGradient x1="0" gradientTransform="matrix(0.75, 0, 0, 0.75, 0.000006, 0.000002)" y1="100" x2="959.99996" gradientUnits="userSpaceOnUse" y2="100" id="a295c0628e"><stop stop-opacity="1" stop-color="rgb(12.199402%, 3.49884%, 16.899109%)" offset="0"/><stop stop-opacity="1" stop-color="rgb(12.272644%, 3.520203%, 16.999817%)" offset="0.015625"/><stop stop-opacity="1" stop-color="rgb(12.419128%, 3.564453%, 17.201233%)" offset="0.03125"/><stop stop-opacity="1" stop-color="rgb(12.565613%, 3.608704%, 17.402649%)" offset="0.046875"/><stop stop-opacity="1" stop-color="rgb(12.713623%, 3.651428%, 17.604065%)" offset="0.0625"/><stop stop-opacity="1" stop-color="rgb(12.860107%, 3.695679%, 17.805481%)" offset="0.078125"/><stop stop-opacity="1" stop-color="rgb(13.006592%, 3.739929%, 18.008423%)" offset="0.09375"/><stop stop-opacity="1" stop-color="rgb(13.153076%, 3.782654%, 18.209839%)" offset="0.109375"/><stop stop-opacity="1" stop-color="rgb(13.301086%, 3.826904%, 18.411255%)" offset="0.125"/><stop stop-opacity="1" stop-color="rgb(13.447571%, 3.871155%, 18.612671%)" offset="0.140625"/><stop stop-opacity="1" stop-color="rgb(13.594055%, 3.913879%, 18.814087%)" offset="0.15625"/><stop stop-opacity="1" stop-color="rgb(13.74054%, 3.95813%, 19.015503%)" offset="0.171875"/><stop stop-opacity="1" stop-color="rgb(13.88855%, 4.00238%, 19.216919%)" offset="0.1875"/><stop stop-opacity="1" stop-color="rgb(14.035034%, 4.045105%, 19.418335%)" offset="0.203125"/><stop stop-opacity="1" stop-color="rgb(14.181519%, 4.089355%, 19.619751%)" offset="0.21875"/><stop stop-opacity="1" stop-color="rgb(14.328003%, 4.133606%, 19.821167%)" offset="0.234375"/><stop stop-opacity="1" stop-color="rgb(14.476013%, 4.176331%, 20.024109%)" offset="0.25"/><stop stop-opacity="1" stop-color="rgb(14.622498%, 4.220581%, 20.225525%)" offset="0.265625"/><stop stop-opacity="1" stop-color="rgb(14.768982%, 4.264832%, 20.426941%)" offset="0.28125"/><stop stop-opacity="1" stop-color="rgb(14.915466%, 4.307556%, 20.628357%)" offset="0.296875"/><stop stop-opacity="1" stop-color="rgb(15.063477%, 4.351807%, 20.829773%)" offset="0.3125"/><stop stop-opacity="1" stop-color="rgb(15.209961%, 4.396057%, 21.031189%)" offset="0.328125"/><stop stop-opacity="1" stop-color="rgb(15.356445%, 4.438782%, 21.232605%)" offset="0.34375"/><stop stop-opacity="1" stop-color="rgb(15.504456%, 4.483032%, 21.434021%)" offset="0.359375"/><stop stop-opacity="1" stop-color="rgb(15.65094%, 4.527283%, 21.635437%)" offset="0.375"/><stop stop-opacity="1" stop-color="rgb(15.797424%, 4.570007%, 21.836853%)" offset="0.390625"/><stop stop-opacity="1" stop-color="rgb(15.943909%, 4.614258%, 22.038269%)" offset="0.40625"/><stop stop-opacity="1" stop-color="rgb(16.091919%, 4.658508%, 22.241211%)" offset="0.421875"/><stop stop-opacity="1" stop-color="rgb(16.238403%, 4.701233%, 22.442627%)" offset="0.4375"/><stop stop-opacity="1" stop-color="rgb(16.384888%, 4.745483%, 22.644043%)" offset="0.453125"/><stop stop-opacity="1" stop-color="rgb(16.531372%, 4.789734%, 22.845459%)" offset="0.46875"/><stop stop-opacity="1" stop-color="rgb(16.679382%, 4.832458%, 23.046875%)" offset="0.484375"/><stop stop-opacity="1" stop-color="rgb(16.825867%, 4.876709%, 23.248291%)" offset="0.5"/><stop stop-opacity="1" stop-color="rgb(16.972351%, 4.920959%, 23.449707%)" offset="0.515625"/><stop stop-opacity="1" stop-color="rgb(17.118835%, 4.963684%, 23.651123%)" offset="0.53125"/><stop stop-opacity="1" stop-color="rgb(17.266846%, 5.007935%, 23.852539%)" offset="0.546875"/><stop stop-opacity="1" stop-color="rgb(17.41333%, 5.052185%, 24.053955%)" offset="0.5625"/><stop stop-opacity="1" stop-color="rgb(17.559814%, 5.09491%, 24.256897%)" offset="0.578125"/><stop stop-opacity="1" stop-color="rgb(17.706299%, 5.13916%, 24.458313%)" offset="0.59375"/><stop stop-opacity="1" stop-color="rgb(17.854309%, 5.183411%, 24.659729%)" offset="0.609375"/><stop stop-opacity="1" stop-color="rgb(18.000793%, 5.226135%, 24.861145%)" offset="0.625"/><stop stop-opacity="1" stop-color="rgb(18.147278%, 5.270386%, 25.062561%)" offset="0.640625"/><stop stop-opacity="1" stop-color="rgb(18.293762%, 5.314636%, 25.263977%)" offset="0.65625"/><stop stop-opacity="1" stop-color="rgb(18.441772%, 5.357361%, 25.465393%)" offset="0.671875"/><stop stop-opacity="1" stop-color="rgb(18.588257%, 5.401611%, 25.666809%)" offset="0.6875"/><stop stop-opacity="1" stop-color="rgb(18.734741%, 5.445862%, 25.868225%)" offset="0.703125"/><stop stop-opacity="1" stop-color="rgb(18.881226%, 5.488586%, 26.069641%)" offset="0.71875"/><stop stop-opacity="1" stop-color="rgb(19.029236%, 5.532837%, 26.271057%)" offset="0.734375"/><stop stop-opacity="1" stop-color="rgb(19.17572%, 5.577087%, 26.473999%)" offset="0.75"/><stop stop-opacity="1" stop-color="rgb(19.322205%, 5.621338%, 26.675415%)" offset="0.765625"/><stop stop-opacity="1" stop-color="rgb(19.468689%, 5.664062%, 26.876831%)" offset="0.78125"/><stop stop-opacity="1" stop-color="rgb(19.616699%, 5.708313%, 27.078247%)" offset="0.796875"/><stop stop-opacity="1" stop-color="rgb(19.763184%, 5.752563%, 27.279663%)" offset="0.8125"/><stop stop-opacity="1" stop-color="rgb(19.909668%, 5.795288%, 27.481079%)" offset="0.828125"/><stop stop-opacity="1" stop-color="rgb(20.056152%, 5.839539%, 27.682495%)" offset="0.84375"/><stop stop-opacity="1" stop-color="rgb(20.204163%, 5.883789%, 27.883911%)" offset="0.859375"/><stop stop-opacity="1" stop-color="rgb(20.350647%, 5.926514%, 28.085327%)" offset="0.875"/><stop stop-opacity="1" stop-color="rgb(20.497131%, 5.970764%, 28.286743%)" offset="0.890625"/><stop stop-opacity="1" stop-color="rgb(20.643616%, 6.015015%, 28.489685%)" offset="0.90625"/><stop stop-opacity="1" stop-color="rgb(20.791626%, 6.057739%, 28.691101%)" offset="0.921875"/><stop stop-opacity="1" stop-color="rgb(20.93811%, 6.10199%, 28.892517%)" offset="0.9375"/><stop stop-opacity="1" stop-color="rgb(21.084595%, 6.14624%, 29.093933%)" offset="0.953125"/><stop stop-opacity="1" stop-color="rgb(21.232605%, 6.188965%, 29.295349%)" offset="0.96875"/><stop stop-opacity="1" stop-color="rgb(21.379089%, 6.233215%, 29.496765%)" offset="0.984375"/><stop stop-opacity="1" stop-color="rgb(21.525574%, 6.277466%, 29.698181%)" offset="1"/></linearGradient><mask id="b8a9a3b093"><g filter="url(#332eff02d0)"><rect x="-72" width="864" fill="#000000" y="-15" height="179.999997" fill-opacity="0.44"/></g></mask><mask id="05d4cf4cfb"><g filter="url(#332eff02d0)"><rect x="-158.4" width="1036.8" fill="#000000" y="-32.999999" height="215.999996" fill-opacity="0.08"/></g></mask><clipPath id="5ce048f00a"><path d="M 0 0.207031 L 39.414062 0.207031 L 39.414062 58.714844 L 0 58.714844 Z M 0 0.207031 " clip-rule="nonzero"/></clipPath><clipPath id="bc0c7d864f"><path d="M 0 57.214844 L 0 1.816406 C 0 0.988281 0.671875 0.316406 1.5 0.316406 L 37.914062 0.316406 C 38.742188 0.316406 39.414062 0.988281 39.414062 1.816406 L 39.414062 57.214844 C 39.414062 58.042969 38.742188 58.714844 37.914062 58.714844 L 1.5 58.714844 C 0.671875 58.714844 0 58.042969 0 57.214844 Z M 0 57.214844 " clip-rule="nonzero"/></clipPath><clipPath id="88479a9212"><rect x="0" width="40" y="0" height="59"/></clipPath><mask id="978ec406f2"><g filter="url(#332eff02d0)"><rect x="-158.4" width="1036.8" fill="#000000" y="-32.999999" height="215.999996" fill-opacity="0.08"/></g></mask><clipPath id="6322f8cb92"><path d="M 0.414062 0.316406 L 35.957031 0.316406 L 35.957031 33.046875 L 0.414062 33.046875 Z M 0.414062 0.316406 " clip-rule="nonzero"/></clipPath><clipPath id="9359379c46"><path d="M 0.414062 31.546875 L 0.414062 1.816406 C 0.414062 1.417969 0.574219 1.035156 0.855469 0.753906 C 1.136719 0.472656 1.515625 0.316406 1.914062 0.316406 L 34.402344 0.316406 C 34.800781 0.316406 35.183594 0.472656 35.464844 0.753906 C 35.746094 1.035156 35.902344 1.417969 35.902344 1.816406 L 35.902344 31.546875 C 35.902344 31.945312 35.746094 32.324219 35.464844 32.605469 C 35.183594 32.886719 34.800781 33.046875 34.402344 33.046875 L 1.914062 33.046875 C 1.515625 33.046875 1.136719 32.886719 0.855469 32.605469 C 0.574219 32.324219 0.414062 31.945312 0.414062 31.546875 Z M 0.414062 31.546875 " clip-rule="nonzero"/></clipPath><clipPath id="9b516c761c"><rect x="0" width="36" y="0" height="34"/></clipPath><mask id="2d02f476bb"><g filter="url(#332eff02d0)"><rect x="-158.4" width="1036.8" fill="#000000" y="-32.999999" height="215.999996" fill-opacity="0.08"/></g></mask><clipPath id="bb5dc644f2"><path d="M 0.417969 0 L 51.488281 0 L 51.488281 9.316406 L 0.417969 9.316406 Z M 0.417969 0 " clip-rule="nonzero"/></clipPath><clipPath id="9d4aee0764"><path d="M 0.417969 7.816406 L 0.417969 -36.214844 C 0.417969 -36.613281 0.574219 -36.996094 0.855469 -37.277344 C 1.136719 -37.558594 1.519531 -37.714844 1.917969 -37.714844 L 49.914062 -37.714844 C 50.3125 -37.714844 50.695312 -37.558594 50.976562 -37.277344 C 51.257812 -36.996094 51.414062 -36.613281 51.414062 -36.214844 L 51.414062 7.816406 C 51.414062 8.214844 51.257812 8.59375 50.976562 8.875 C 50.695312 9.15625 50.3125 9.316406 49.914062 9.316406 L 1.917969 9.316406 C 1.519531 9.316406 1.136719 9.15625 0.855469 8.875 C 0.574219 8.59375 0.417969 8.214844 0.417969 7.816406 Z M 0.417969 7.816406 " clip-rule="nonzero"/></clipPath><clipPath id="be2ffc285b"><rect x="0" width="52" y="0" height="10"/></clipPath><clipPath id="5249ddc35a"><path d="M 90 67 L 162 67 L 162 133.199219 L 90 133.199219 Z M 90 67 " clip-rule="nonzero"/></clipPath><mask id="50c8d75a27"><g filter="url(#332eff02d0)"><rect x="-158.4" width="1036.8" fill="#000000" y="-32.999999" height="215.999996" fill-opacity="0.08"/></g></mask><clipPath id="fbe6ef3bdc"><path d="M 0.414062 0.714844 L 71.5 0.714844 L 71.5 66.175781 L 0.414062 66.175781 Z M 0.414062 0.714844 " clip-rule="nonzero"/></clipPath><clipPath id="2594305a5b"><path d="M 0.414062 64.675781 L 0.414062 2.214844 C 0.414062 1.816406 0.574219 1.433594 0.855469 1.152344 C 1.136719 0.871094 1.515625 0.714844 1.914062 0.714844 L 69.894531 0.714844 C 70.292969 0.714844 70.671875 0.871094 70.953125 1.152344 C 71.234375 1.433594 71.394531 1.816406 71.394531 2.214844 L 71.394531 64.675781 C 71.394531 65.070312 71.234375 65.453125 70.953125 65.734375 C 70.671875 66.015625 70.292969 66.175781 69.894531 66.175781 L 1.914062 66.175781 C 1.515625 66.175781 1.136719 66.015625 0.855469 65.734375 C 0.574219 65.453125 0.414062 65.070312 0.414062 64.675781 Z M 0.414062 64.675781 " clip-rule="nonzero"/></clipPath><clipPath id="5f2b0b79b5"><rect x="0" width="72" y="0" height="67"/></clipPath><mask id="400e06e9b8"><g filter="url(#332eff02d0)"><rect x="-158.4" width="1036.8" fill="#000000" y="-32.999999" height="215.999996" fill-opacity="0.08"/></g></mask><clipPath id="7bd9abcc15"><path d="M 0.394531 0 L 114.882812 0 L 114.882812 67.714844 L 0.394531 67.714844 Z M 0.394531 0 " clip-rule="nonzero"/></clipPath><clipPath id="d7b00d9ade"><path d="M 1.894531 -37.714844 L 113.214844 -37.714844 C 113.613281 -37.714844 113.992188 -37.558594 114.273438 -37.277344 C 114.554688 -36.996094 114.714844 -36.613281 114.714844 -36.214844 L 114.714844 66.214844 C 114.714844 66.613281 114.554688 66.996094 114.273438 67.277344 C 113.992188 67.558594 113.613281 67.714844 113.214844 67.714844 L 1.894531 67.714844 C 1.496094 67.714844 1.113281 67.558594 0.832031 67.277344 C 0.550781 66.996094 0.394531 66.613281 0.394531 66.214844 L 0.394531 -36.214844 C 0.394531 -36.613281 0.550781 -36.996094 0.832031 -37.277344 C 1.113281 -37.558594 1.496094 -37.714844 1.894531 -37.714844 Z M 1.894531 -37.714844 " clip-rule="nonzero"/></clipPath><clipPath id="9da513e44e"><rect x="0" width="115" y="0" height="68"/></clipPath><clipPath id="17b4aed54c"><path d="M 90 67 L 162 67 L 162 133.199219 L 90 133.199219 Z M 90 67 " clip-rule="nonzero"/></clipPath><mask id="f0a61640f8"><g filter="url(#332eff02d0)"><rect x="-158.4" width="1036.8" fill="#000000" y="-32.999999" height="215.999996" fill-opacity="0.08"/></g></mask><clipPath id="48e6cee815"><path d="M 0.414062 0.714844 L 71.5 0.714844 L 71.5 66.175781 L 0.414062 66.175781 Z M 0.414062 0.714844 " clip-rule="nonzero"/></clipPath><clipPath id="89bd828453"><path d="M 1.914062 0.714844 L 69.894531 0.714844 C 70.289062 0.714844 70.671875 0.875 70.953125 1.15625 C 71.234375 1.4375 71.394531 1.816406 71.394531 2.214844 L 71.394531 64.675781 C 71.394531 65.074219 71.234375 65.453125 70.953125 65.734375 C 70.671875 66.015625 70.289062 66.175781 69.894531 66.175781 L 1.914062 66.175781 C 1.515625 66.175781 1.132812 66.015625 0.851562 65.734375 C 0.570312 65.453125 0.414062 65.074219 0.414062 64.675781 L 0.414062 2.214844 C 0.414062 1.816406 0.570312 1.4375 0.851562 1.15625 C 1.132812 0.875 1.515625 0.714844 1.914062 0.714844 Z M 1.914062 0.714844 " clip-rule="nonzero"/></clipPath><clipPath id="9bcfe9c98d"><rect x="0" width="72" y="0" height="67"/></clipPath><mask id="bed9dfd898"><g filter="url(#332eff02d0)"><rect x="-158.4" width="1036.8" fill="#000000" y="-32.999999" height="215.999996" fill-opacity="0.08"/></g></mask><clipPath id="b37fd343fa"><path d="M 0 0.316406 L 39.414062 0.316406 L 39.414062 58.824219 L 0 58.824219 Z M 0 0.316406 " clip-rule="nonzero"/></clipPath><clipPath id="54b2582bfb"><path d="M 1.5 0.316406 L 37.914062 0.316406 C 38.3125 0.316406 38.695312 0.472656 38.976562 0.757812 C 39.257812 1.039062 39.414062 1.417969 39.414062 1.816406 L 39.414062 57.214844 C 39.414062 57.613281 39.257812 57.996094 38.976562 58.277344 C 38.695312 58.558594 38.3125 58.714844 37.914062 58.714844 L 1.5 58.714844 C 1.101562 58.714844 0.71875 58.558594 0.4375 58.277344 C 0.15625 57.996094 0 57.613281 0 57.214844 L 0 1.816406 C 0 1.417969 0.15625 1.039062 0.4375 0.757812 C 0.71875 0.472656 1.101562 0.316406 1.5 0.316406 Z M 1.5 0.316406 " clip-rule="nonzero"/></clipPath><clipPath id="c924309bf4"><rect x="0" width="40" y="0" height="59"/></clipPath><mask id="6169ead552"><g filter="url(#332eff02d0)"><rect x="-158.4" width="1036.8" fill="#000000" y="-32.999999" height="215.999996" fill-opacity="0.08"/></g></mask><clipPath id="9f13ff0da0"><path d="M 0.414062 0 L 51.488281 0 L 51.488281 9.316406 L 0.414062 9.316406 Z M 0.414062 0 " clip-rule="nonzero"/></clipPath><clipPath id="f4ea7c437d"><path d="M 1.914062 -37.714844 L 49.914062 -37.714844 C 50.3125 -37.714844 50.691406 -37.558594 50.972656 -37.277344 C 51.253906 -36.996094 51.414062 -36.613281 51.414062 -36.214844 L 51.414062 7.816406 C 51.414062 8.214844 51.253906 8.597656 50.972656 8.878906 C 50.691406 9.160156 50.3125 9.316406 49.914062 9.316406 L 1.914062 9.316406 C 1.519531 9.316406 1.136719 9.160156 0.855469 8.878906 C 0.574219 8.597656 0.414062 8.214844 0.414062 7.816406 L 0.414062 -36.214844 C 0.414062 -36.613281 0.574219 -36.996094 0.855469 -37.277344 C 1.136719 -37.558594 1.519531 -37.714844 1.914062 -37.714844 Z M 1.914062 -37.714844 " clip-rule="nonzero"/></clipPath><clipPath id="8759cb34b5"><rect x="0" width="52" y="0" height="10"/></clipPath><mask id="cc773f4645"><g filter="url(#332eff02d0)"><rect x="-158.4" width="1036.8" fill="#000000" y="-32.999999" height="215.999996" fill-opacity="0.08"/></g></mask><clipPath id="8f5bf86866"><path d="M 0.414062 0.316406 L 35.957031 0.316406 L 35.957031 33.046875 L 0.414062 33.046875 Z M 0.414062 0.316406 " clip-rule="nonzero"/></clipPath><clipPath id="6edab51f5c"><path d="M 1.914062 0.316406 L 34.402344 0.316406 C 34.800781 0.316406 35.183594 0.472656 35.464844 0.757812 C 35.746094 1.039062 35.902344 1.417969 35.902344 1.816406 L 35.902344 31.546875 C 35.902344 31.945312 35.746094 32.324219 35.464844 32.605469 C 35.183594 32.886719 34.800781 33.046875 34.402344 33.046875 L 1.914062 33.046875 C 1.515625 33.046875 1.132812 32.886719 0.851562 32.605469 C 0.570312 32.324219 0.414062 31.945312 0.414062 31.546875 L 0.414062 1.816406 C 0.414062 1.417969 0.570312 1.039062 0.851562 0.757812 C 1.132812 0.472656 1.515625 0.316406 1.914062 0.316406 Z M 1.914062 0.316406 " clip-rule="nonzero"/></clipPath><clipPath id="e3dad5f26e"><rect x="0" width="36" y="0" height="34"/></clipPath><clipPath id="3cf719e125"><rect x="0" width="276" y="0" height="134"/></clipPath></defs><rect x="-72" width="864" fill="#ffffff" y="-15" height="179.999997" fill-opacity="1"/><rect x="-72" fill="url(#a295c0628e)" width="864" y="-15" height="179.999997"/><g mask="url(#b8a9a3b093)"><g transform="matrix(1, 0, 0, 1, 0, -0.000000000000007527)"><g clip-path="url(#3cf719e125)"><g mask="url(#05d4cf4cfb)"><g transform="matrix(1, 0, 0, 1, 0, 9)"><g clip-path="url(#88479a9212)"><g clip-path="url(#5ce048f00a)"><g clip-path="url(#bc0c7d864f)"><path fill="#ffffff" d="M 0 58.714844 L 0 0.359375 L 39.414062 0.359375 L 39.414062 58.714844 Z M 0 58.714844 " fill-opacity="1" fill-rule="nonzero"/></g></g></g></g></g><g mask="url(#978ec406f2)"><g transform="matrix(1, 0, 0, 1, 90, 9)"><g clip-path="url(#9b516c761c)"><g clip-path="url(#6322f8cb92)"><g clip-path="url(#9359379c46)"><path fill="#ffffff" d="M 0.414062 33.046875 L 0.414062 0.316406 L 35.957031 0.316406 L 35.957031 33.046875 Z M 0.414062 33.046875 " fill-opacity="1" fill-rule="nonzero"/></g></g></g></g></g><g mask="url(#2d02f476bb)"><g transform="matrix(1, 0, 0, 1, 39, -0.000000000000007527)"><g clip-path="url(#be2ffc285b)"><g clip-path="url(#bb5dc644f2)"><g clip-path="url(#9d4aee0764)"><path fill="#ffffff" d="M 0.417969 9.316406 L 0.417969 -37.714844 L 51.488281 -37.714844 L 51.488281 9.316406 Z M 0.417969 9.316406 " fill-opacity="1" fill-rule="nonzero"/></g></g></g></g></g><g clip-path="url(#5249ddc35a)"><g mask="url(#50c8d75a27)"><g transform="matrix(1, 0, 0, 1, 90, 67)"><g clip-path="url(#5f2b0b79b5)"><g clip-path="url(#fbe6ef3bdc)"><g clip-path="url(#2594305a5b)"><path fill="#ffffff" d="M 0.414062 66.175781 L 0.414062 0.714844 L 71.5 0.714844 L 71.5 66.175781 Z M 0.414062 66.175781 " fill-opacity="1" fill-rule="nonzero"/></g></g></g></g></g></g><g mask="url(#400e06e9b8)"><g transform="matrix(1, 0, 0, 1, 161, -0.000000000000007527)"><g clip-path="url(#9da513e44e)"><g clip-path="url(#7bd9abcc15)"><g clip-path="url(#d7b00d9ade)"><path fill="#ffffff" d="M 0.394531 -37.714844 L 114.882812 -37.714844 L 114.882812 67.714844 L 0.394531 67.714844 Z M 0.394531 -37.714844 " fill-opacity="1" fill-rule="nonzero"/></g></g></g></g></g><g clip-path="url(#17b4aed54c)"><g mask="url(#f0a61640f8)"><g transform="matrix(1, 0, 0, 1, 90, 67)"><g clip-path="url(#9bcfe9c98d)"><g clip-path="url(#48e6cee815)"><g clip-path="url(#89bd828453)"><path fill="#ffffff" d="M 0.414062 0.714844 L 71.5 0.714844 L 71.5 66.175781 L 0.414062 66.175781 Z M 0.414062 0.714844 " fill-opacity="1" fill-rule="nonzero"/></g></g></g></g></g></g><g mask="url(#bed9dfd898)"><g transform="matrix(1, 0, 0, 1, 0, 9)"><g clip-path="url(#c924309bf4)"><g clip-path="url(#b37fd343fa)"><g clip-path="url(#54b2582bfb)"><path fill="#ffffff" d="M 0 0.316406 L 39.414062 0.316406 L 39.414062 58.671875 L 0 58.671875 Z M 0 0.316406 " fill-opacity="1" fill-rule="nonzero"/></g></g></g></g></g><g mask="url(#6169ead552)"><g transform="matrix(1, 0, 0, 1, 39, -0.000000000000007527)"><g clip-path="url(#8759cb34b5)"><g clip-path="url(#9f13ff0da0)"><g clip-path="url(#f4ea7c437d)"><path fill="#ffffff" d="M 0.414062 -37.714844 L 51.488281 -37.714844 L 51.488281 9.316406 L 0.414062 9.316406 Z M 0.414062 -37.714844 " fill-opacity="1" fill-rule="nonzero"/></g></g></g></g></g><g mask="url(#cc773f4645)"><g transform="matrix(1, 0, 0, 1, 90, 9)"><g clip-path="url(#e3dad5f26e)"><g clip-path="url(#8f5bf86866)"><g clip-path="url(#6edab51f5c)"><path fill="#ffffff" d="M 0.414062 0.316406 L 35.957031 0.316406 L 35.957031 33.046875 L 0.414062 33.046875 Z M 0.414062 0.316406 " fill-opacity="1" fill-rule="nonzero"/></g></g></g></g></g></g></g></g><g fill="#ffffff" fill-opacity="1"><g transform="translate(476.071178, 96.926946)"><g><path d="M 38.65625 -13.25 C 38.65625 -8.6875 37.320312 -5.335938 34.65625 -3.203125 C 32 -1.066406 27.816406 0 22.109375 0 L 3.453125 0 L 3.453125 -45.140625 L 22.109375 -45.140625 C 27.285156 -45.140625 30.96875 -44.238281 33.15625 -42.4375 C 35.34375 -40.644531 36.4375 -37.632812 36.4375 -33.40625 C 36.4375 -30.71875 36.070312 -28.664062 35.34375 -27.25 C 34.625 -25.832031 33.1875 -24.738281 31.03125 -23.96875 C 33.625 -23.445312 35.539062 -22.296875 36.78125 -20.515625 C 38.03125 -18.742188 38.65625 -16.320312 38.65625 -13.25 Z M 26.140625 -31.75 C 26.140625 -33.332031 25.835938 -34.4375 25.234375 -35.0625 C 24.640625 -35.6875 23.597656 -36 22.109375 -36 L 14.609375 -36 L 14.609375 -26.859375 L 22.109375 -26.859375 C 23.597656 -26.859375 24.640625 -27.226562 25.234375 -27.96875 C 25.835938 -28.71875 26.140625 -29.976562 26.140625 -31.75 Z M 27.859375 -13.96875 C 27.859375 -15.695312 27.425781 -16.90625 26.5625 -17.59375 C 25.695312 -18.289062 24.210938 -18.640625 22.109375 -18.640625 L 14.609375 -18.640625 L 14.609375 -9.5 L 22.109375 -9.5 C 24.210938 -9.5 25.695312 -9.832031 26.5625 -10.5 C 27.425781 -11.175781 27.859375 -12.332031 27.859375 -13.96875 Z M 27.859375 -13.96875 "/></g></g></g><g fill="#ffffff" fill-opacity="1"><g transform="translate(516.168687, 96.926946)"><g><path d="M 11.515625 0 L -0.21875 0 L 16.484375 -45.140625 L 28.078125 -45.140625 L 44.359375 0 L 32.6875 0 L 30.3125 -7.5625 L 13.890625 -7.5625 Z M 22.03125 -34.0625 C 21.644531 -32.71875 21.222656 -31.285156 20.765625 -29.765625 C 20.316406 -28.253906 19.5625 -25.796875 18.5 -22.390625 L 16.625 -16.421875 L 27.5 -16.421875 L 25.625 -22.390625 C 25.007812 -24.210938 24.390625 -26.144531 23.765625 -28.1875 C 23.140625 -30.226562 22.5625 -32.1875 22.03125 -34.0625 Z M 22.03125 -34.0625 "/></g></g></g><g fill="#ffffff" fill-opacity="1"><g transform="translate(560.441515, 96.926946)"><g><path d="M 20.59375 -16.84375 L 11.453125 -19.015625 C 7.796875 -19.867188 5.304688 -21.179688 3.984375 -22.953125 C 2.671875 -24.734375 2.015625 -27.28125 2.015625 -30.59375 C 2.015625 -35.832031 3.394531 -39.6875 6.15625 -42.15625 C 8.914062 -44.625 13.203125 -45.859375 19.015625 -45.859375 C 21.410156 -45.859375 23.539062 -45.757812 25.40625 -45.5625 C 27.28125 -45.375 29.007812 -45.039062 30.59375 -44.5625 L 30.59375 -34.5625 C 26.945312 -35.1875 24.441406 -35.546875 23.078125 -35.640625 C 21.710938 -35.734375 20.285156 -35.78125 18.796875 -35.78125 C 16.773438 -35.78125 15.304688 -35.441406 14.390625 -34.765625 C 13.484375 -34.097656 13.03125 -32.972656 13.03125 -31.390625 C 13.03125 -30.617188 13.171875 -30.03125 13.453125 -29.625 C 13.742188 -29.21875 14.300781 -28.921875 15.125 -28.734375 L 23.765625 -26.71875 C 26.253906 -26.132812 28.050781 -25.566406 29.15625 -25.015625 C 30.257812 -24.460938 31.148438 -23.753906 31.828125 -22.890625 C 32.585938 -21.984375 33.148438 -20.804688 33.515625 -19.359375 C 33.878906 -17.921875 34.0625 -16.171875 34.0625 -14.109375 C 34.0625 -8.878906 32.664062 -5.097656 29.875 -2.765625 C 27.09375 -0.441406 22.773438 0.71875 16.921875 0.71875 C 13.941406 0.71875 11.109375 0.535156 8.421875 0.171875 C 5.734375 -0.179688 3.644531 -0.625 2.15625 -1.15625 L 2.15625 -11.734375 C 4.082031 -11.109375 6.363281 -10.613281 9 -10.25 C 11.632812 -9.894531 14.273438 -9.71875 16.921875 -9.71875 C 19.035156 -9.71875 20.5 -9.976562 21.3125 -10.5 C 22.125 -11.03125 22.53125 -12.09375 22.53125 -13.6875 C 22.53125 -14.6875 22.398438 -15.414062 22.140625 -15.875 C 21.878906 -16.332031 21.363281 -16.65625 20.59375 -16.84375 Z M 20.59375 -16.84375 "/></g></g></g><g fill="#ffffff" fill-opacity="1"><g transform="translate(595.643814, 96.926946)"><g><path d="M 32.546875 -10.515625 L 32.546875 -1.9375 C 31.390625 -1.21875 29.441406 -0.59375 26.703125 -0.0625 C 23.972656 0.457031 21.097656 0.71875 18.078125 0.71875 C 12.316406 0.71875 8.160156 -0.726562 5.609375 -3.625 C 3.066406 -6.53125 1.796875 -11.25 1.796875 -17.78125 C 1.796875 -24.164062 3.140625 -28.84375 5.828125 -31.8125 C 8.515625 -34.789062 12.765625 -36.28125 18.578125 -36.28125 C 24.242188 -36.28125 28.238281 -35.164062 30.5625 -32.9375 C 32.894531 -30.707031 34.0625 -26.757812 34.0625 -21.09375 C 34.0625 -19.5625 34.035156 -18.335938 33.984375 -17.421875 C 33.929688 -16.515625 33.835938 -15.457031 33.703125 -14.25 L 12.671875 -14.25 C 12.722656 -12.28125 13.25 -10.910156 14.25 -10.140625 C 15.257812 -9.378906 17.109375 -9 19.796875 -9 C 22.097656 -9 24.445312 -9.15625 26.84375 -9.46875 C 29.25 -9.78125 31.148438 -10.128906 32.546875 -10.515625 Z M 18.578125 -27.078125 C 16.273438 -27.078125 14.710938 -26.679688 13.890625 -25.890625 C 13.078125 -25.097656 12.671875 -23.546875 12.671875 -21.234375 L 24.265625 -21.234375 L 24.265625 -22.828125 C 24.210938 -24.503906 23.8125 -25.628906 23.0625 -26.203125 C 22.320312 -26.785156 20.828125 -27.078125 18.578125 -27.078125 Z M 18.578125 -27.078125 "/></g></g></g><g fill="#ffffff" fill-opacity="1"><g transform="translate(578.333355, 118.97694)"><g><path d="M 6.4375 -2.203125 C 6.4375 -1.441406 6.210938 -0.882812 5.765625 -0.53125 C 5.328125 -0.175781 4.632812 0 3.6875 0 L 0.578125 0 L 0.578125 -7.53125 L 3.6875 -7.53125 C 4.550781 -7.53125 5.164062 -7.378906 5.53125 -7.078125 C 5.894531 -6.773438 6.078125 -6.269531 6.078125 -5.5625 C 6.078125 -5.113281 6.015625 -4.769531 5.890625 -4.53125 C 5.773438 -4.300781 5.535156 -4.125 5.171875 -4 C 5.597656 -3.90625 5.914062 -3.707031 6.125 -3.40625 C 6.332031 -3.113281 6.4375 -2.710938 6.4375 -2.203125 Z M 4.359375 -5.296875 C 4.359375 -5.554688 4.304688 -5.738281 4.203125 -5.84375 C 4.109375 -5.945312 3.9375 -6 3.6875 -6 L 2.4375 -6 L 2.4375 -4.46875 L 3.6875 -4.46875 C 3.9375 -4.46875 4.109375 -4.53125 4.203125 -4.65625 C 4.304688 -4.78125 4.359375 -4.992188 4.359375 -5.296875 Z M 4.640625 -2.328125 C 4.640625 -2.617188 4.566406 -2.820312 4.421875 -2.9375 C 4.285156 -3.050781 4.039062 -3.109375 3.6875 -3.109375 L 2.4375 -3.109375 L 2.4375 -1.578125 L 3.6875 -1.578125 C 4.039062 -1.578125 4.285156 -1.632812 4.421875 -1.75 C 4.566406 -1.863281 4.640625 -2.054688 4.640625 -2.328125 Z M 4.640625 -2.328125 "/></g></g></g><g fill="#ffffff" fill-opacity="1"><g transform="translate(585.017368, 118.97694)"><g><path d="M 1.3125 0.40625 C 1.59375 0.40625 1.800781 0.367188 1.9375 0.296875 C 2.070312 0.222656 2.160156 0.0820312 2.203125 -0.125 L -0.03125 -5.921875 L 1.984375 -5.921875 L 3.125 -1.875 L 4.203125 -5.921875 L 6.125 -5.921875 L 4.015625 0.125 C 3.796875 0.769531 3.503906 1.234375 3.140625 1.515625 C 2.773438 1.796875 2.289062 1.9375 1.6875 1.9375 C 1.519531 1.9375 1.347656 1.925781 1.171875 1.90625 C 0.992188 1.894531 0.832031 1.875 0.6875 1.84375 L 0.6875 0.390625 C 0.75 0.390625 0.816406 0.390625 0.890625 0.390625 C 0.972656 0.398438 1.113281 0.40625 1.3125 0.40625 Z M 1.3125 0.40625 "/></g></g></g><g fill="#ffffff" fill-opacity="1"><g transform="translate(591.149375, 118.97694)"><g/></g></g><g fill="#ffffff" fill-opacity="1"><g transform="translate(592.925384, 118.97694)"><g><path d="M 4.84375 -2.796875 L 3.546875 -2.796875 L 3.546875 -4.296875 L 6.578125 -4.296875 L 6.578125 -0.34375 C 6.347656 -0.238281 5.945312 -0.132812 5.375 -0.03125 C 4.800781 0.0703125 4.273438 0.125 3.796875 0.125 C 2.492188 0.125 1.585938 -0.175781 1.078125 -0.78125 C 0.578125 -1.382812 0.328125 -2.378906 0.328125 -3.765625 C 0.328125 -5.109375 0.617188 -6.085938 1.203125 -6.703125 C 1.796875 -7.328125 2.742188 -7.640625 4.046875 -7.640625 C 4.515625 -7.640625 4.9375 -7.628906 5.3125 -7.609375 C 5.6875 -7.585938 5.972656 -7.5625 6.171875 -7.53125 L 6.171875 -5.890625 C 5.898438 -5.910156 5.582031 -5.925781 5.21875 -5.9375 C 4.863281 -5.957031 4.472656 -5.96875 4.046875 -5.96875 C 3.585938 -5.96875 3.25 -5.925781 3.03125 -5.84375 C 2.8125 -5.757812 2.644531 -5.617188 2.53125 -5.421875 C 2.425781 -5.265625 2.351562 -5.050781 2.3125 -4.78125 C 2.269531 -4.507812 2.25 -4.171875 2.25 -3.765625 C 2.25 -3.378906 2.265625 -3.050781 2.296875 -2.78125 C 2.335938 -2.519531 2.40625 -2.304688 2.5 -2.140625 C 2.601562 -1.929688 2.757812 -1.78125 2.96875 -1.6875 C 3.175781 -1.601562 3.492188 -1.5625 3.921875 -1.5625 C 4.066406 -1.5625 4.21875 -1.566406 4.375 -1.578125 C 4.53125 -1.585938 4.6875 -1.601562 4.84375 -1.625 Z M 4.84375 -2.796875 "/></g></g></g><g fill="#ffffff" fill-opacity="1"><g transform="translate(599.861396, 118.97694)"><g><path d="M 2.5 0.125 C 1.820312 0.125 1.316406 -0.0390625 0.984375 -0.375 C 0.648438 -0.707031 0.484375 -1.210938 0.484375 -1.890625 L 0.484375 -5.921875 L 2.296875 -5.921875 L 2.296875 -2.125 C 2.296875 -1.925781 2.351562 -1.78125 2.46875 -1.6875 C 2.59375 -1.601562 2.785156 -1.5625 3.046875 -1.5625 C 3.203125 -1.5625 3.363281 -1.570312 3.53125 -1.59375 C 3.707031 -1.613281 3.882812 -1.648438 4.0625 -1.703125 L 4.0625 -5.921875 L 5.859375 -5.921875 L 5.859375 0 L 4.171875 0 L 4.125 -0.328125 L 4.109375 -0.328125 C 3.828125 -0.191406 3.539062 -0.0820312 3.25 0 C 2.96875 0.0820312 2.71875 0.125 2.5 0.125 Z M 2.5 0.125 "/></g></g></g><g fill="#ffffff" fill-opacity="1"><g transform="translate(606.233408, 118.97694)"><g><path d="M 1.953125 0.125 C 1.347656 0.125 0.898438 -0.0234375 0.609375 -0.328125 C 0.328125 -0.640625 0.1875 -1.125 0.1875 -1.78125 C 0.1875 -2.445312 0.359375 -2.914062 0.703125 -3.1875 C 1.046875 -3.457031 1.628906 -3.59375 2.453125 -3.59375 C 2.648438 -3.59375 2.847656 -3.582031 3.046875 -3.5625 C 3.253906 -3.550781 3.4375 -3.523438 3.59375 -3.484375 L 3.59375 -3.921875 C 3.59375 -4.117188 3.507812 -4.257812 3.34375 -4.34375 C 3.175781 -4.4375 2.925781 -4.484375 2.59375 -4.484375 C 2.207031 -4.484375 1.863281 -4.472656 1.5625 -4.453125 C 1.257812 -4.429688 0.988281 -4.398438 0.75 -4.359375 L 0.75 -5.828125 C 1.039062 -5.898438 1.378906 -5.953125 1.765625 -5.984375 C 2.160156 -6.023438 2.617188 -6.046875 3.140625 -6.046875 C 3.878906 -6.046875 4.4375 -5.878906 4.8125 -5.546875 C 5.195312 -5.222656 5.390625 -4.742188 5.390625 -4.109375 L 5.390625 0 L 3.703125 0 L 3.640625 -0.5 L 3.609375 -0.5 C 3.359375 -0.3125 3.085938 -0.160156 2.796875 -0.046875 C 2.503906 0.0664062 2.222656 0.125 1.953125 0.125 Z M 2.703125 -2.40625 C 2.378906 -2.40625 2.160156 -2.367188 2.046875 -2.296875 C 1.941406 -2.234375 1.890625 -2.097656 1.890625 -1.890625 C 1.890625 -1.679688 1.929688 -1.539062 2.015625 -1.46875 C 2.109375 -1.394531 2.273438 -1.359375 2.515625 -1.359375 C 2.679688 -1.359375 2.859375 -1.378906 3.046875 -1.421875 C 3.242188 -1.472656 3.425781 -1.535156 3.59375 -1.609375 L 3.59375 -2.34375 C 3.488281 -2.363281 3.363281 -2.378906 3.21875 -2.390625 C 3.082031 -2.398438 2.910156 -2.40625 2.703125 -2.40625 Z M 2.703125 -2.40625 "/></g></g></g><g fill="#ffffff" fill-opacity="1"><g transform="translate(612.113417, 118.97694)"><g><path d="M 2.3125 0 L 0.515625 0 L 0.515625 -5.921875 L 2.203125 -5.921875 L 2.25 -5.46875 L 2.28125 -5.46875 C 2.570312 -5.644531 2.863281 -5.78125 3.15625 -5.875 C 3.457031 -5.96875 3.742188 -6.015625 4.015625 -6.015625 L 4.109375 -6.015625 L 4.109375 -4.265625 C 4.035156 -4.285156 3.957031 -4.296875 3.875 -4.296875 C 3.789062 -4.304688 3.679688 -4.3125 3.546875 -4.3125 C 3.316406 -4.3125 3.097656 -4.296875 2.890625 -4.265625 C 2.679688 -4.234375 2.488281 -4.191406 2.3125 -4.140625 Z M 2.3125 0 "/></g></g></g><g fill="#ffffff" fill-opacity="1"><g transform="translate(616.373422, 118.97694)"><g><path d="M 4.171875 -7.984375 L 5.96875 -7.984375 L 5.96875 0 L 4.375 0 L 4.28125 -0.546875 L 4.25 -0.546875 C 4.03125 -0.328125 3.769531 -0.160156 3.46875 -0.046875 C 3.175781 0.0664062 2.84375 0.125 2.46875 0.125 C 1.6875 0.125 1.128906 -0.109375 0.796875 -0.578125 C 0.460938 -1.054688 0.296875 -1.851562 0.296875 -2.96875 C 0.296875 -4.039062 0.503906 -4.820312 0.921875 -5.3125 C 1.347656 -5.800781 2.03125 -6.046875 2.96875 -6.046875 C 3.207031 -6.046875 3.425781 -6.03125 3.625 -6 C 3.832031 -5.976562 4.015625 -5.941406 4.171875 -5.890625 Z M 3.234375 -4.421875 C 2.753906 -4.421875 2.441406 -4.332031 2.296875 -4.15625 C 2.160156 -3.976562 2.09375 -3.582031 2.09375 -2.96875 C 2.09375 -2.382812 2.148438 -2 2.265625 -1.8125 C 2.390625 -1.632812 2.675781 -1.546875 3.125 -1.546875 C 3.332031 -1.546875 3.523438 -1.5625 3.703125 -1.59375 C 3.878906 -1.625 4.035156 -1.671875 4.171875 -1.734375 L 4.171875 -4.265625 C 4.054688 -4.328125 3.921875 -4.367188 3.765625 -4.390625 C 3.609375 -4.410156 3.429688 -4.421875 3.234375 -4.421875 Z M 3.234375 -4.421875 "/></g></g></g><g fill="#ffffff" fill-opacity="1"><g transform="translate(622.865438, 118.97694)"><g><path d="M 2.359375 -6.578125 L 0.46875 -6.578125 L 0.46875 -7.984375 L 2.359375 -7.984375 Z M 2.3125 0 L 0.515625 0 L 0.515625 -5.921875 L 2.3125 -5.921875 Z M 2.3125 0 "/></g></g></g><g fill="#ffffff" fill-opacity="1"><g transform="translate(625.697438, 118.97694)"><g><path d="M 1.953125 0.125 C 1.347656 0.125 0.898438 -0.0234375 0.609375 -0.328125 C 0.328125 -0.640625 0.1875 -1.125 0.1875 -1.78125 C 0.1875 -2.445312 0.359375 -2.914062 0.703125 -3.1875 C 1.046875 -3.457031 1.628906 -3.59375 2.453125 -3.59375 C 2.648438 -3.59375 2.847656 -3.582031 3.046875 -3.5625 C 3.253906 -3.550781 3.4375 -3.523438 3.59375 -3.484375 L 3.59375 -3.921875 C 3.59375 -4.117188 3.507812 -4.257812 3.34375 -4.34375 C 3.175781 -4.4375 2.925781 -4.484375 2.59375 -4.484375 C 2.207031 -4.484375 1.863281 -4.472656 1.5625 -4.453125 C 1.257812 -4.429688 0.988281 -4.398438 0.75 -4.359375 L 0.75 -5.828125 C 1.039062 -5.898438 1.378906 -5.953125 1.765625 -5.984375 C 2.160156 -6.023438 2.617188 -6.046875 3.140625 -6.046875 C 3.878906 -6.046875 4.4375 -5.878906 4.8125 -5.546875 C 5.195312 -5.222656 5.390625 -4.742188 5.390625 -4.109375 L 5.390625 0 L 3.703125 0 L 3.640625 -0.5 L 3.609375 -0.5 C 3.359375 -0.3125 3.085938 -0.160156 2.796875 -0.046875 C 2.503906 0.0664062 2.222656 0.125 1.953125 0.125 Z M 2.703125 -2.40625 C 2.378906 -2.40625 2.160156 -2.367188 2.046875 -2.296875 C 1.941406 -2.234375 1.890625 -2.097656 1.890625 -1.890625 C 1.890625 -1.679688 1.929688 -1.539062 2.015625 -1.46875 C 2.109375 -1.394531 2.273438 -1.359375 2.515625 -1.359375 C 2.679688 -1.359375 2.859375 -1.378906 3.046875 -1.421875 C 3.242188 -1.472656 3.425781 -1.535156 3.59375 -1.609375 L 3.59375 -2.34375 C 3.488281 -2.363281 3.363281 -2.378906 3.21875 -2.390625 C 3.082031 -2.398438 2.910156 -2.40625 2.703125 -2.40625 Z M 2.703125 -2.40625 "/></g></g></g></svg>