<svg xmlns="http://www.w3.org/2000/svg" xmlns:xlink="http://www.w3.org/1999/xlink" width="960" zoomAndPan="magnify" viewBox="0 0 720 149.999998" height="200" preserveAspectRatio="xMidYMid meet" version="1.0"><defs><filter x="0%" y="0%" width="100%" height="100%" id="5bd4b1659c"><feColorMatrix values="0 0 0 0 1 0 0 0 0 1 0 0 0 0 1 0 0 0 1 0" color-interpolation-filters="sRGB"/></filter><g/><linearGradient x1="0" gradientTransform="matrix(0.75, 0, 0, 0.75, 0.000006, 0.000002)" y1="100" x2="959.99996" gradientUnits="userSpaceOnUse" y2="100" id="4b77ec712b"><stop stop-opacity="1" stop-color="rgb(12.199402%, 3.49884%, 16.899109%)" offset="0"/><stop stop-opacity="1" stop-color="rgb(12.272644%, 3.520203%, 16.999817%)" offset="0.015625"/><stop stop-opacity="1" stop-color="rgb(12.419128%, 3.564453%, 17.201233%)" offset="0.03125"/><stop stop-opacity="1" stop-color="rgb(12.565613%, 3.608704%, 17.402649%)" offset="0.046875"/><stop stop-opacity="1" stop-color="rgb(12.713623%, 3.651428%, 17.604065%)" offset="0.0625"/><stop stop-opacity="1" stop-color="rgb(12.860107%, 3.695679%, 17.805481%)" offset="0.078125"/><stop stop-opacity="1" stop-color="rgb(13.006592%, 3.739929%, 18.008423%)" offset="0.09375"/><stop stop-opacity="1" stop-color="rgb(13.153076%, 3.782654%, 18.209839%)" offset="0.109375"/><stop stop-opacity="1" stop-color="rgb(13.301086%, 3.826904%, 18.411255%)" offset="0.125"/><stop stop-opacity="1" stop-color="rgb(13.447571%, 3.871155%, 18.612671%)" offset="0.140625"/><stop stop-opacity="1" stop-color="rgb(13.594055%, 3.913879%, 18.814087%)" offset="0.15625"/><stop stop-opacity="1" stop-color="rgb(13.74054%, 3.95813%, 19.015503%)" offset="0.171875"/><stop stop-opacity="1" stop-color="rgb(13.88855%, 4.00238%, 19.216919%)" offset="0.1875"/><stop stop-opacity="1" stop-color="rgb(14.035034%, 4.045105%, 19.418335%)" offset="0.203125"/><stop stop-opacity="1" stop-color="rgb(14.181519%, 4.089355%, 19.619751%)" offset="0.21875"/><stop stop-opacity="1" stop-color="rgb(14.328003%, 4.133606%, 19.821167%)" offset="0.234375"/><stop stop-opacity="1" stop-color="rgb(14.476013%, 4.176331%, 20.024109%)" offset="0.25"/><stop stop-opacity="1" stop-color="rgb(14.622498%, 4.220581%, 20.225525%)" offset="0.265625"/><stop stop-opacity="1" stop-color="rgb(14.768982%, 4.264832%, 20.426941%)" offset="0.28125"/><stop stop-opacity="1" stop-color="rgb(14.915466%, 4.307556%, 20.628357%)" offset="0.296875"/><stop stop-opacity="1" stop-color="rgb(15.063477%, 4.351807%, 20.829773%)" offset="0.3125"/><stop stop-opacity="1" stop-color="rgb(15.209961%, 4.396057%, 21.031189%)" offset="0.328125"/><stop stop-opacity="1" stop-color="rgb(15.356445%, 4.438782%, 21.232605%)" offset="0.34375"/><stop stop-opacity="1" stop-color="rgb(15.504456%, 4.483032%, 21.434021%)" offset="0.359375"/><stop stop-opacity="1" stop-color="rgb(15.65094%, 4.527283%, 21.635437%)" offset="0.375"/><stop stop-opacity="1" stop-color="rgb(15.797424%, 4.570007%, 21.836853%)" offset="0.390625"/><stop stop-opacity="1" stop-color="rgb(15.943909%, 4.614258%, 22.038269%)" offset="0.40625"/><stop stop-opacity="1" stop-color="rgb(16.091919%, 4.658508%, 22.241211%)" offset="0.421875"/><stop stop-opacity="1" stop-color="rgb(16.238403%, 4.701233%, 22.442627%)" offset="0.4375"/><stop stop-opacity="1" stop-color="rgb(16.384888%, 4.745483%, 22.644043%)" offset="0.453125"/><stop stop-opacity="1" stop-color="rgb(16.531372%, 4.789734%, 22.845459%)" offset="0.46875"/><stop stop-opacity="1" stop-color="rgb(16.679382%, 4.832458%, 23.046875%)" offset="0.484375"/><stop stop-opacity="1" stop-color="rgb(16.825867%, 4.876709%, 23.248291%)" offset="0.5"/><stop stop-opacity="1" stop-color="rgb(16.972351%, 4.920959%, 23.449707%)" offset="0.515625"/><stop stop-opacity="1" stop-color="rgb(17.118835%, 4.963684%, 23.651123%)" offset="0.53125"/><stop stop-opacity="1" stop-color="rgb(17.266846%, 5.007935%, 23.852539%)" offset="0.546875"/><stop stop-opacity="1" stop-color="rgb(17.41333%, 5.052185%, 24.053955%)" offset="0.5625"/><stop stop-opacity="1" stop-color="rgb(17.559814%, 5.09491%, 24.256897%)" offset="0.578125"/><stop stop-opacity="1" stop-color="rgb(17.706299%, 5.13916%, 24.458313%)" offset="0.59375"/><stop stop-opacity="1" stop-color="rgb(17.854309%, 5.183411%, 24.659729%)" offset="0.609375"/><stop stop-opacity="1" stop-color="rgb(18.000793%, 5.226135%, 24.861145%)" offset="0.625"/><stop stop-opacity="1" stop-color="rgb(18.147278%, 5.270386%, 25.062561%)" offset="0.640625"/><stop stop-opacity="1" stop-color="rgb(18.293762%, 5.314636%, 25.263977%)" offset="0.65625"/><stop stop-opacity="1" stop-color="rgb(18.441772%, 5.357361%, 25.465393%)" offset="0.671875"/><stop stop-opacity="1" stop-color="rgb(18.588257%, 5.401611%, 25.666809%)" offset="0.6875"/><stop stop-opacity="1" stop-color="rgb(18.734741%, 5.445862%, 25.868225%)" offset="0.703125"/><stop stop-opacity="1" stop-color="rgb(18.881226%, 5.488586%, 26.069641%)" offset="0.71875"/><stop stop-opacity="1" stop-color="rgb(19.029236%, 5.532837%, 26.271057%)" offset="0.734375"/><stop stop-opacity="1" stop-color="rgb(19.17572%, 5.577087%, 26.473999%)" offset="0.75"/><stop stop-opacity="1" stop-color="rgb(19.322205%, 5.621338%, 26.675415%)" offset="0.765625"/><stop stop-opacity="1" stop-color="rgb(19.468689%, 5.664062%, 26.876831%)" offset="0.78125"/><stop stop-opacity="1" stop-color="rgb(19.616699%, 5.708313%, 27.078247%)" offset="0.796875"/><stop stop-opacity="1" stop-color="rgb(19.763184%, 5.752563%, 27.279663%)" offset="0.8125"/><stop stop-opacity="1" stop-color="rgb(19.909668%, 5.795288%, 27.481079%)" offset="0.828125"/><stop stop-opacity="1" stop-color="rgb(20.056152%, 5.839539%, 27.682495%)" offset="0.84375"/><stop stop-opacity="1" stop-color="rgb(20.204163%, 5.883789%, 27.883911%)" offset="0.859375"/><stop stop-opacity="1" stop-color="rgb(20.350647%, 5.926514%, 28.085327%)" offset="0.875"/><stop stop-opacity="1" stop-color="rgb(20.497131%, 5.970764%, 28.286743%)" offset="0.890625"/><stop stop-opacity="1" stop-color="rgb(20.643616%, 6.015015%, 28.489685%)" offset="0.90625"/><stop stop-opacity="1" stop-color="rgb(20.791626%, 6.057739%, 28.691101%)" offset="0.921875"/><stop stop-opacity="1" stop-color="rgb(20.93811%, 6.10199%, 28.892517%)" offset="0.9375"/><stop stop-opacity="1" stop-color="rgb(21.084595%, 6.14624%, 29.093933%)" offset="0.953125"/><stop stop-opacity="1" stop-color="rgb(21.232605%, 6.188965%, 29.295349%)" offset="0.96875"/><stop stop-opacity="1" stop-color="rgb(21.379089%, 6.233215%, 29.496765%)" offset="0.984375"/><stop stop-opacity="1" stop-color="rgb(21.525574%, 6.277466%, 29.698181%)" offset="1"/></linearGradient><mask id="cca9319d58"><g filter="url(#5bd4b1659c)"><rect x="-72" width="864" fill="#000000" y="-15" height="179.999997" fill-opacity="0.44"/></g></mask><clipPath id="fd53463fc8"><path d="M 87 0.398438 L 159 0.398438 L 159 67 L 87 67 Z M 87 0.398438 " clip-rule="nonzero"/></clipPath><mask id="05c003ccee"><g filter="url(#5bd4b1659c)"><rect x="-161.4" width="1036.8" fill="#000000" y="-76.999999" height="215.999996" fill-opacity="0.08"/></g></mask><clipPath id="77fcaeb299"><path d="M 0.414062 0.617188 L 71.5 0.617188 L 71.5 66.074219 L 0.414062 66.074219 Z M 0.414062 0.617188 " clip-rule="nonzero"/></clipPath><clipPath id="adac63a886"><path d="M 0.414062 64.574219 L 0.414062 2.117188 C 0.414062 1.71875 0.574219 1.335938 0.855469 1.054688 C 1.136719 0.773438 1.515625 0.617188 1.914062 0.617188 L 69.894531 0.617188 C 70.292969 0.617188 70.671875 0.773438 70.953125 1.054688 C 71.234375 1.335938 71.394531 1.71875 71.394531 2.117188 L 71.394531 64.574219 C 71.394531 64.972656 71.234375 65.355469 70.953125 65.636719 C 70.671875 65.917969 70.292969 66.074219 69.894531 66.074219 L 1.914062 66.074219 C 1.515625 66.074219 1.136719 65.917969 0.855469 65.636719 C 0.574219 65.355469 0.414062 64.972656 0.414062 64.574219 Z M 0.414062 64.574219 " clip-rule="nonzero"/></clipPath><clipPath id="3c7dc2bd3e"><rect x="0" width="72" y="0" height="67"/></clipPath><clipPath id="a7a2a30717"><path d="M 36 0.398438 L 73 0.398438 L 73 34 L 36 34 Z M 36 0.398438 " clip-rule="nonzero"/></clipPath><mask id="da520da4a0"><g filter="url(#5bd4b1659c)"><rect x="-161.4" width="1036.8" fill="#000000" y="-76.999999" height="215.999996" fill-opacity="0.08"/></g></mask><clipPath id="dd83ed5ee3"><path d="M 0.417969 0.617188 L 35.957031 0.617188 L 35.957031 33.347656 L 0.417969 33.347656 Z M 0.417969 0.617188 " clip-rule="nonzero"/></clipPath><clipPath id="7fbdf0e4cd"><path d="M 0.417969 31.847656 L 0.417969 2.117188 C 0.417969 1.71875 0.574219 1.335938 0.855469 1.054688 C 1.136719 0.773438 1.519531 0.617188 1.917969 0.617188 L 34.40625 0.617188 C 34.804688 0.617188 35.183594 0.773438 35.464844 1.054688 C 35.746094 1.335938 35.90625 1.71875 35.90625 2.117188 L 35.90625 31.847656 C 35.90625 32.242188 35.746094 32.625 35.464844 32.90625 C 35.183594 33.1875 34.804688 33.347656 34.40625 33.347656 L 1.917969 33.347656 C 1.519531 33.347656 1.136719 33.1875 0.855469 32.90625 C 0.574219 32.625 0.417969 32.242188 0.417969 31.847656 Z M 0.417969 31.847656 " clip-rule="nonzero"/></clipPath><clipPath id="6e9912bf4f"><rect x="0" width="37" y="0" height="34"/></clipPath><mask id="17a8056826"><g filter="url(#5bd4b1659c)"><rect x="-161.4" width="1036.8" fill="#000000" y="-76.999999" height="215.999996" fill-opacity="0.08"/></g></mask><clipPath id="e913c1a2bb"><path d="M 0.417969 1.074219 L 51.488281 1.074219 L 51.488281 41 L 0.417969 41 Z M 0.417969 1.074219 " clip-rule="nonzero"/></clipPath><clipPath id="a6862efd1d"><path d="M 0.417969 46.609375 L 0.417969 2.574219 C 0.417969 2.179688 0.574219 1.796875 0.855469 1.515625 C 1.136719 1.234375 1.519531 1.074219 1.917969 1.074219 L 49.914062 1.074219 C 50.3125 1.074219 50.695312 1.234375 50.976562 1.515625 C 51.257812 1.796875 51.414062 2.179688 51.414062 2.574219 L 51.414062 46.609375 C 51.414062 47.003906 51.257812 47.386719 50.976562 47.667969 C 50.695312 47.949219 50.3125 48.109375 49.914062 48.109375 L 1.917969 48.109375 C 1.519531 48.109375 1.136719 47.949219 0.855469 47.667969 C 0.574219 47.386719 0.417969 47.003906 0.417969 46.609375 Z M 0.417969 46.609375 " clip-rule="nonzero"/></clipPath><clipPath id="d3f6e6d18c"><rect x="0" width="52" y="0" height="41"/></clipPath><clipPath id="95aab4bd77"><path d="M 0.839844 33 L 37 33 L 37 67 L 0.839844 67 Z M 0.839844 33 " clip-rule="nonzero"/></clipPath><mask id="bbc6b851cf"><g filter="url(#5bd4b1659c)"><rect x="-161.4" width="1036.8" fill="#000000" y="-76.999999" height="215.999996" fill-opacity="0.08"/></g></mask><clipPath id="153f93a02d"><path d="M 0.925781 0.347656 L 36.46875 0.347656 L 36.46875 33.074219 L 0.925781 33.074219 Z M 0.925781 0.347656 " clip-rule="nonzero"/></clipPath><clipPath id="2cf6ad032a"><path d="M 0.925781 31.574219 L 0.925781 1.847656 C 0.925781 1.449219 1.085938 1.066406 1.367188 0.785156 C 1.648438 0.503906 2.027344 0.347656 2.425781 0.347656 L 34.917969 0.347656 C 35.3125 0.347656 35.695312 0.503906 35.976562 0.785156 C 36.257812 1.066406 36.417969 1.449219 36.417969 1.847656 L 36.417969 31.574219 C 36.417969 31.972656 36.257812 32.355469 35.976562 32.636719 C 35.695312 32.917969 35.3125 33.074219 34.917969 33.074219 L 2.425781 33.074219 C 2.027344 33.074219 1.648438 32.917969 1.367188 32.636719 C 1.085938 32.355469 0.925781 31.972656 0.925781 31.574219 Z M 0.925781 31.574219 " clip-rule="nonzero"/></clipPath><clipPath id="c2246a604f"><rect x="0" width="37" y="0" height="34"/></clipPath><mask id="99e7133b96"><g filter="url(#5bd4b1659c)"><rect x="-161.4" width="1036.8" fill="#000000" y="-76.999999" height="215.999996" fill-opacity="0.08"/></g></mask><clipPath id="9607c21635"><path d="M 0.394531 1.078125 L 114.882812 1.078125 L 114.882812 41 L 0.394531 41 Z M 0.394531 1.078125 " clip-rule="nonzero"/></clipPath><clipPath id="e08ae45e43"><path d="M 1.894531 1.078125 L 113.214844 1.078125 C 113.613281 1.078125 113.992188 1.234375 114.273438 1.515625 C 114.554688 1.796875 114.714844 2.179688 114.714844 2.578125 L 114.714844 105.007812 C 114.714844 105.40625 114.554688 105.785156 114.273438 106.070312 C 113.992188 106.351562 113.613281 106.507812 113.214844 106.507812 L 1.894531 106.507812 C 1.496094 106.507812 1.113281 106.351562 0.832031 106.070312 C 0.550781 105.785156 0.394531 105.40625 0.394531 105.007812 L 0.394531 2.578125 C 0.394531 2.179688 0.550781 1.796875 0.832031 1.515625 C 1.113281 1.234375 1.496094 1.078125 1.894531 1.078125 Z M 1.894531 1.078125 " clip-rule="nonzero"/></clipPath><clipPath id="df6b6f5508"><rect x="0" width="115" y="0" height="41"/></clipPath><clipPath id="5d48c70d66"><path d="M 87 0.398438 L 159 0.398438 L 159 67 L 87 67 Z M 87 0.398438 " clip-rule="nonzero"/></clipPath><mask id="7a64612725"><g filter="url(#5bd4b1659c)"><rect x="-161.4" width="1036.8" fill="#000000" y="-76.999999" height="215.999996" fill-opacity="0.08"/></g></mask><clipPath id="cbb1f0f0bb"><path d="M 0.414062 0.617188 L 71.5 0.617188 L 71.5 66.078125 L 0.414062 66.078125 Z M 0.414062 0.617188 " clip-rule="nonzero"/></clipPath><clipPath id="963935dbe9"><path d="M 1.914062 0.617188 L 69.894531 0.617188 C 70.289062 0.617188 70.671875 0.773438 70.953125 1.054688 C 71.234375 1.335938 71.394531 1.71875 71.394531 2.117188 L 71.394531 64.578125 C 71.394531 64.972656 71.234375 65.355469 70.953125 65.636719 C 70.671875 65.917969 70.289062 66.078125 69.894531 66.078125 L 1.914062 66.078125 C 1.515625 66.078125 1.132812 65.917969 0.851562 65.636719 C 0.570312 65.355469 0.414062 64.972656 0.414062 64.578125 L 0.414062 2.117188 C 0.414062 1.71875 0.570312 1.335938 0.851562 1.054688 C 1.132812 0.773438 1.515625 0.617188 1.914062 0.617188 Z M 1.914062 0.617188 " clip-rule="nonzero"/></clipPath><clipPath id="aaa95b493f"><rect x="0" width="72" y="0" height="67"/></clipPath><mask id="f5a2ba0df4"><g filter="url(#5bd4b1659c)"><rect x="-161.4" width="1036.8" fill="#000000" y="-76.999999" height="215.999996" fill-opacity="0.08"/></g></mask><clipPath id="d04c1513d1"><path d="M 0.414062 1.078125 L 51.488281 1.078125 L 51.488281 41 L 0.414062 41 Z M 0.414062 1.078125 " clip-rule="nonzero"/></clipPath><clipPath id="f938ca2c57"><path d="M 1.914062 1.078125 L 49.914062 1.078125 C 50.3125 1.078125 50.691406 1.234375 50.972656 1.515625 C 51.253906 1.796875 51.414062 2.179688 51.414062 2.578125 L 51.414062 46.609375 C 51.414062 47.007812 51.253906 47.386719 50.972656 47.667969 C 50.691406 47.949219 50.3125 48.109375 49.914062 48.109375 L 1.914062 48.109375 C 1.519531 48.109375 1.136719 47.949219 0.855469 47.667969 C 0.574219 47.386719 0.414062 47.007812 0.414062 46.609375 L 0.414062 2.578125 C 0.414062 2.179688 0.574219 1.796875 0.855469 1.515625 C 1.136719 1.234375 1.519531 1.078125 1.914062 1.078125 Z M 1.914062 1.078125 " clip-rule="nonzero"/></clipPath><clipPath id="0963a94699"><rect x="0" width="52" y="0" height="41"/></clipPath><clipPath id="a778bd9c39"><path d="M 36 0.398438 L 73 0.398438 L 73 34 L 36 34 Z M 36 0.398438 " clip-rule="nonzero"/></clipPath><mask id="c99861e41b"><g filter="url(#5bd4b1659c)"><rect x="-161.4" width="1036.8" fill="#000000" y="-76.999999" height="215.999996" fill-opacity="0.08"/></g></mask><clipPath id="8903ad2010"><path d="M 0.414062 0.617188 L 35.957031 0.617188 L 35.957031 33.347656 L 0.414062 33.347656 Z M 0.414062 0.617188 " clip-rule="nonzero"/></clipPath><clipPath id="bc749eee06"><path d="M 1.914062 0.617188 L 34.40625 0.617188 C 34.804688 0.617188 35.183594 0.773438 35.464844 1.054688 C 35.746094 1.335938 35.90625 1.71875 35.90625 2.117188 L 35.90625 31.847656 C 35.90625 32.246094 35.746094 32.625 35.464844 32.90625 C 35.183594 33.1875 34.804688 33.347656 34.40625 33.347656 L 1.914062 33.347656 C 1.519531 33.347656 1.136719 33.1875 0.855469 32.90625 C 0.574219 32.625 0.414062 32.246094 0.414062 31.847656 L 0.414062 2.117188 C 0.414062 1.71875 0.574219 1.335938 0.855469 1.054688 C 1.136719 0.773438 1.519531 0.617188 1.914062 0.617188 Z M 1.914062 0.617188 " clip-rule="nonzero"/></clipPath><clipPath id="0fd349b494"><rect x="0" width="37" y="0" height="34"/></clipPath><clipPath id="1ceca258ae"><path d="M 0.839844 33 L 37 33 L 37 67 L 0.839844 67 Z M 0.839844 33 " clip-rule="nonzero"/></clipPath><mask id="89caf4932d"><g filter="url(#5bd4b1659c)"><rect x="-161.4" width="1036.8" fill="#000000" y="-76.999999" height="215.999996" fill-opacity="0.08"/></g></mask><clipPath id="ee40a7a0ff"><path d="M 0.925781 0.347656 L 36.46875 0.347656 L 36.46875 33.078125 L 0.925781 33.078125 Z M 0.925781 0.347656 " clip-rule="nonzero"/></clipPath><clipPath id="5b6bfdde36"><path d="M 2.425781 0.347656 L 34.914062 0.347656 C 35.3125 0.347656 35.695312 0.503906 35.976562 0.785156 C 36.257812 1.066406 36.414062 1.449219 36.414062 1.847656 L 36.414062 31.578125 C 36.414062 31.972656 36.257812 32.355469 35.976562 32.636719 C 35.695312 32.917969 35.3125 33.078125 34.914062 33.078125 L 2.425781 33.078125 C 2.027344 33.078125 1.648438 32.917969 1.367188 32.636719 C 1.085938 32.355469 0.925781 31.972656 0.925781 31.578125 L 0.925781 1.847656 C 0.925781 1.449219 1.085938 1.066406 1.367188 0.785156 C 1.648438 0.503906 2.027344 0.347656 2.425781 0.347656 Z M 2.425781 0.347656 " clip-rule="nonzero"/></clipPath><clipPath id="a8cb2445c6"><rect x="0" width="37" y="0" height="34"/></clipPath><clipPath id="d57425aff6"><rect x="0" width="273" y="0" height="106"/></clipPath></defs><rect x="-72" width="864" fill="#ffffff" y="-15" height="179.999997" fill-opacity="1"/><rect x="-72" fill="url(#4b77ec712b)" width="864" y="-15" height="179.999997"/><g fill="#ffffff" fill-opacity="1"><g transform="translate(520.77384, 96.926946)"><g><path d="M 32.25 -10.4375 L 32.25 0 L 3.453125 0 L 3.453125 -45.140625 L 14.609375 -45.140625 L 14.609375 -10.4375 Z M 32.25 -10.4375 "/></g></g></g><g fill="#ffffff" fill-opacity="1"><g transform="translate(553.960468, 96.926946)"><g><path d="M 27.140625 -23.25 L 44.0625 0 L 29.953125 0 L 17.640625 -18.4375 L 14.609375 -18.4375 L 14.609375 0 L 3.453125 0 L 3.453125 -45.140625 L 14.609375 -45.140625 L 14.609375 -27.359375 L 17.640625 -27.359375 L 30.09375 -45.140625 L 43.484375 -45.140625 Z M 27.140625 -23.25 "/></g></g></g><g fill="#ffffff" fill-opacity="1"><g transform="translate(597.153477, 96.926946)"><g><path d="M 32.546875 -10.515625 L 32.546875 -1.9375 C 31.390625 -1.21875 29.441406 -0.59375 26.703125 -0.0625 C 23.972656 0.457031 21.097656 0.71875 18.078125 0.71875 C 12.316406 0.71875 8.160156 -0.726562 5.609375 -3.625 C 3.066406 -6.53125 1.796875 -11.25 1.796875 -17.78125 C 1.796875 -24.164062 3.140625 -28.84375 5.828125 -31.8125 C 8.515625 -34.789062 12.765625 -36.28125 18.578125 -36.28125 C 24.242188 -36.28125 28.238281 -35.164062 30.5625 -32.9375 C 32.894531 -30.707031 34.0625 -26.757812 34.0625 -21.09375 C 34.0625 -19.5625 34.035156 -18.335938 33.984375 -17.421875 C 33.929688 -16.515625 33.835938 -15.457031 33.703125 -14.25 L 12.671875 -14.25 C 12.722656 -12.28125 13.25 -10.910156 14.25 -10.140625 C 15.257812 -9.378906 17.109375 -9 19.796875 -9 C 22.097656 -9 24.445312 -9.15625 26.84375 -9.46875 C 29.25 -9.78125 31.148438 -10.128906 32.546875 -10.515625 Z M 18.578125 -27.078125 C 16.273438 -27.078125 14.710938 -26.679688 13.890625 -25.890625 C 13.078125 -25.097656 12.671875 -23.546875 12.671875 -21.234375 L 24.265625 -21.234375 L 24.265625 -22.828125 C 24.210938 -24.503906 23.8125 -25.628906 23.0625 -26.203125 C 22.320312 -26.785156 20.828125 -27.078125 18.578125 -27.078125 Z M 18.578125 -27.078125 "/></g></g></g><g fill="#ffffff" fill-opacity="1"><g transform="translate(574.881939, 117.57305)"><g><path d="M 6.4375 -2.203125 C 6.4375 -1.441406 6.210938 -0.882812 5.765625 -0.53125 C 5.328125 -0.175781 4.632812 0 3.6875 0 L 0.578125 0 L 0.578125 -7.53125 L 3.6875 -7.53125 C 4.550781 -7.53125 5.164062 -7.378906 5.53125 -7.078125 C 5.894531 -6.773438 6.078125 -6.269531 6.078125 -5.5625 C 6.078125 -5.113281 6.015625 -4.769531 5.890625 -4.53125 C 5.773438 -4.300781 5.535156 -4.125 5.171875 -4 C 5.597656 -3.90625 5.914062 -3.707031 6.125 -3.40625 C 6.332031 -3.113281 6.4375 -2.710938 6.4375 -2.203125 Z M 4.359375 -5.296875 C 4.359375 -5.554688 4.304688 -5.738281 4.203125 -5.84375 C 4.109375 -5.945312 3.9375 -6 3.6875 -6 L 2.4375 -6 L 2.4375 -4.46875 L 3.6875 -4.46875 C 3.9375 -4.46875 4.109375 -4.53125 4.203125 -4.65625 C 4.304688 -4.78125 4.359375 -4.992188 4.359375 -5.296875 Z M 4.640625 -2.328125 C 4.640625 -2.617188 4.566406 -2.820312 4.421875 -2.9375 C 4.285156 -3.050781 4.039062 -3.109375 3.6875 -3.109375 L 2.4375 -3.109375 L 2.4375 -1.578125 L 3.6875 -1.578125 C 4.039062 -1.578125 4.285156 -1.632812 4.421875 -1.75 C 4.566406 -1.863281 4.640625 -2.054688 4.640625 -2.328125 Z M 4.640625 -2.328125 "/></g></g></g><g fill="#ffffff" fill-opacity="1"><g transform="translate(581.565952, 117.57305)"><g><path d="M 1.3125 0.40625 C 1.59375 0.40625 1.800781 0.367188 1.9375 0.296875 C 2.070312 0.222656 2.160156 0.0820312 2.203125 -0.125 L -0.03125 -5.921875 L 1.984375 -5.921875 L 3.125 -1.875 L 4.203125 -5.921875 L 6.125 -5.921875 L 4.015625 0.125 C 3.796875 0.769531 3.503906 1.234375 3.140625 1.515625 C 2.773438 1.796875 2.289062 1.9375 1.6875 1.9375 C 1.519531 1.9375 1.347656 1.925781 1.171875 1.90625 C 0.992188 1.894531 0.832031 1.875 0.6875 1.84375 L 0.6875 0.390625 C 0.75 0.390625 0.816406 0.390625 0.890625 0.390625 C 0.972656 0.398438 1.113281 0.40625 1.3125 0.40625 Z M 1.3125 0.40625 "/></g></g></g><g fill="#ffffff" fill-opacity="1"><g transform="translate(587.697959, 117.57305)"><g/></g></g><g fill="#ffffff" fill-opacity="1"><g transform="translate(589.473968, 117.57305)"><g><path d="M 4.84375 -2.796875 L 3.546875 -2.796875 L 3.546875 -4.296875 L 6.578125 -4.296875 L 6.578125 -0.34375 C 6.347656 -0.238281 5.945312 -0.132812 5.375 -0.03125 C 4.800781 0.0703125 4.273438 0.125 3.796875 0.125 C 2.492188 0.125 1.585938 -0.175781 1.078125 -0.78125 C 0.578125 -1.382812 0.328125 -2.378906 0.328125 -3.765625 C 0.328125 -5.109375 0.617188 -6.085938 1.203125 -6.703125 C 1.796875 -7.328125 2.742188 -7.640625 4.046875 -7.640625 C 4.515625 -7.640625 4.9375 -7.628906 5.3125 -7.609375 C 5.6875 -7.585938 5.972656 -7.5625 6.171875 -7.53125 L 6.171875 -5.890625 C 5.898438 -5.910156 5.582031 -5.925781 5.21875 -5.9375 C 4.863281 -5.957031 4.472656 -5.96875 4.046875 -5.96875 C 3.585938 -5.96875 3.25 -5.925781 3.03125 -5.84375 C 2.8125 -5.757812 2.644531 -5.617188 2.53125 -5.421875 C 2.425781 -5.265625 2.351562 -5.050781 2.3125 -4.78125 C 2.269531 -4.507812 2.25 -4.171875 2.25 -3.765625 C 2.25 -3.378906 2.265625 -3.050781 2.296875 -2.78125 C 2.335938 -2.519531 2.40625 -2.304688 2.5 -2.140625 C 2.601562 -1.929688 2.757812 -1.78125 2.96875 -1.6875 C 3.175781 -1.601562 3.492188 -1.5625 3.921875 -1.5625 C 4.066406 -1.5625 4.21875 -1.566406 4.375 -1.578125 C 4.53125 -1.585938 4.6875 -1.601562 4.84375 -1.625 Z M 4.84375 -2.796875 "/></g></g></g><g fill="#ffffff" fill-opacity="1"><g transform="translate(596.40998, 117.57305)"><g><path d="M 2.5 0.125 C 1.820312 0.125 1.316406 -0.0390625 0.984375 -0.375 C 0.648438 -0.707031 0.484375 -1.210938 0.484375 -1.890625 L 0.484375 -5.921875 L 2.296875 -5.921875 L 2.296875 -2.125 C 2.296875 -1.925781 2.351562 -1.78125 2.46875 -1.6875 C 2.59375 -1.601562 2.785156 -1.5625 3.046875 -1.5625 C 3.203125 -1.5625 3.363281 -1.570312 3.53125 -1.59375 C 3.707031 -1.613281 3.882812 -1.648438 4.0625 -1.703125 L 4.0625 -5.921875 L 5.859375 -5.921875 L 5.859375 0 L 4.171875 0 L 4.125 -0.328125 L 4.109375 -0.328125 C 3.828125 -0.191406 3.539062 -0.0820312 3.25 0 C 2.96875 0.0820312 2.71875 0.125 2.5 0.125 Z M 2.5 0.125 "/></g></g></g><g fill="#ffffff" fill-opacity="1"><g transform="translate(602.781993, 117.57305)"><g><path d="M 1.953125 0.125 C 1.347656 0.125 0.898438 -0.0234375 0.609375 -0.328125 C 0.328125 -0.640625 0.1875 -1.125 0.1875 -1.78125 C 0.1875 -2.445312 0.359375 -2.914062 0.703125 -3.1875 C 1.046875 -3.457031 1.628906 -3.59375 2.453125 -3.59375 C 2.648438 -3.59375 2.847656 -3.582031 3.046875 -3.5625 C 3.253906 -3.550781 3.4375 -3.523438 3.59375 -3.484375 L 3.59375 -3.921875 C 3.59375 -4.117188 3.507812 -4.257812 3.34375 -4.34375 C 3.175781 -4.4375 2.925781 -4.484375 2.59375 -4.484375 C 2.207031 -4.484375 1.863281 -4.472656 1.5625 -4.453125 C 1.257812 -4.429688 0.988281 -4.398438 0.75 -4.359375 L 0.75 -5.828125 C 1.039062 -5.898438 1.378906 -5.953125 1.765625 -5.984375 C 2.160156 -6.023438 2.617188 -6.046875 3.140625 -6.046875 C 3.878906 -6.046875 4.4375 -5.878906 4.8125 -5.546875 C 5.195312 -5.222656 5.390625 -4.742188 5.390625 -4.109375 L 5.390625 0 L 3.703125 0 L 3.640625 -0.5 L 3.609375 -0.5 C 3.359375 -0.3125 3.085938 -0.160156 2.796875 -0.046875 C 2.503906 0.0664062 2.222656 0.125 1.953125 0.125 Z M 2.703125 -2.40625 C 2.378906 -2.40625 2.160156 -2.367188 2.046875 -2.296875 C 1.941406 -2.234375 1.890625 -2.097656 1.890625 -1.890625 C 1.890625 -1.679688 1.929688 -1.539062 2.015625 -1.46875 C 2.109375 -1.394531 2.273438 -1.359375 2.515625 -1.359375 C 2.679688 -1.359375 2.859375 -1.378906 3.046875 -1.421875 C 3.242188 -1.472656 3.425781 -1.535156 3.59375 -1.609375 L 3.59375 -2.34375 C 3.488281 -2.363281 3.363281 -2.378906 3.21875 -2.390625 C 3.082031 -2.398438 2.910156 -2.40625 2.703125 -2.40625 Z M 2.703125 -2.40625 "/></g></g></g><g fill="#ffffff" fill-opacity="1"><g transform="translate(608.662001, 117.57305)"><g><path d="M 2.3125 0 L 0.515625 0 L 0.515625 -5.921875 L 2.203125 -5.921875 L 2.25 -5.46875 L 2.28125 -5.46875 C 2.570312 -5.644531 2.863281 -5.78125 3.15625 -5.875 C 3.457031 -5.96875 3.742188 -6.015625 4.015625 -6.015625 L 4.109375 -6.015625 L 4.109375 -4.265625 C 4.035156 -4.285156 3.957031 -4.296875 3.875 -4.296875 C 3.789062 -4.304688 3.679688 -4.3125 3.546875 -4.3125 C 3.316406 -4.3125 3.097656 -4.296875 2.890625 -4.265625 C 2.679688 -4.234375 2.488281 -4.191406 2.3125 -4.140625 Z M 2.3125 0 "/></g></g></g><g fill="#ffffff" fill-opacity="1"><g transform="translate(612.922007, 117.57305)"><g><path d="M 4.171875 -7.984375 L 5.96875 -7.984375 L 5.96875 0 L 4.375 0 L 4.28125 -0.546875 L 4.25 -0.546875 C 4.03125 -0.328125 3.769531 -0.160156 3.46875 -0.046875 C 3.175781 0.0664062 2.84375 0.125 2.46875 0.125 C 1.6875 0.125 1.128906 -0.109375 0.796875 -0.578125 C 0.460938 -1.054688 0.296875 -1.851562 0.296875 -2.96875 C 0.296875 -4.039062 0.503906 -4.820312 0.921875 -5.3125 C 1.347656 -5.800781 2.03125 -6.046875 2.96875 -6.046875 C 3.207031 -6.046875 3.425781 -6.03125 3.625 -6 C 3.832031 -5.976562 4.015625 -5.941406 4.171875 -5.890625 Z M 3.234375 -4.421875 C 2.753906 -4.421875 2.441406 -4.332031 2.296875 -4.15625 C 2.160156 -3.976562 2.09375 -3.582031 2.09375 -2.96875 C 2.09375 -2.382812 2.148438 -2 2.265625 -1.8125 C 2.390625 -1.632812 2.675781 -1.546875 3.125 -1.546875 C 3.332031 -1.546875 3.523438 -1.5625 3.703125 -1.59375 C 3.878906 -1.625 4.035156 -1.671875 4.171875 -1.734375 L 4.171875 -4.265625 C 4.054688 -4.328125 3.921875 -4.367188 3.765625 -4.390625 C 3.609375 -4.410156 3.429688 -4.421875 3.234375 -4.421875 Z M 3.234375 -4.421875 "/></g></g></g><g fill="#ffffff" fill-opacity="1"><g transform="translate(619.414022, 117.57305)"><g><path d="M 2.359375 -6.578125 L 0.46875 -6.578125 L 0.46875 -7.984375 L 2.359375 -7.984375 Z M 2.3125 0 L 0.515625 0 L 0.515625 -5.921875 L 2.3125 -5.921875 Z M 2.3125 0 "/></g></g></g><g fill="#ffffff" fill-opacity="1"><g transform="translate(622.246023, 117.57305)"><g><path d="M 1.953125 0.125 C 1.347656 0.125 0.898438 -0.0234375 0.609375 -0.328125 C 0.328125 -0.640625 0.1875 -1.125 0.1875 -1.78125 C 0.1875 -2.445312 0.359375 -2.914062 0.703125 -3.1875 C 1.046875 -3.457031 1.628906 -3.59375 2.453125 -3.59375 C 2.648438 -3.59375 2.847656 -3.582031 3.046875 -3.5625 C 3.253906 -3.550781 3.4375 -3.523438 3.59375 -3.484375 L 3.59375 -3.921875 C 3.59375 -4.117188 3.507812 -4.257812 3.34375 -4.34375 C 3.175781 -4.4375 2.925781 -4.484375 2.59375 -4.484375 C 2.207031 -4.484375 1.863281 -4.472656 1.5625 -4.453125 C 1.257812 -4.429688 0.988281 -4.398438 0.75 -4.359375 L 0.75 -5.828125 C 1.039062 -5.898438 1.378906 -5.953125 1.765625 -5.984375 C 2.160156 -6.023438 2.617188 -6.046875 3.140625 -6.046875 C 3.878906 -6.046875 4.4375 -5.878906 4.8125 -5.546875 C 5.195312 -5.222656 5.390625 -4.742188 5.390625 -4.109375 L 5.390625 0 L 3.703125 0 L 3.640625 -0.5 L 3.609375 -0.5 C 3.359375 -0.3125 3.085938 -0.160156 2.796875 -0.046875 C 2.503906 0.0664062 2.222656 0.125 1.953125 0.125 Z M 2.703125 -2.40625 C 2.378906 -2.40625 2.160156 -2.367188 2.046875 -2.296875 C 1.941406 -2.234375 1.890625 -2.097656 1.890625 -1.890625 C 1.890625 -1.679688 1.929688 -1.539062 2.015625 -1.46875 C 2.109375 -1.394531 2.273438 -1.359375 2.515625 -1.359375 C 2.679688 -1.359375 2.859375 -1.378906 3.046875 -1.421875 C 3.242188 -1.472656 3.425781 -1.535156 3.59375 -1.609375 L 3.59375 -2.34375 C 3.488281 -2.363281 3.363281 -2.378906 3.21875 -2.390625 C 3.082031 -2.398438 2.910156 -2.40625 2.703125 -2.40625 Z M 2.703125 -2.40625 "/></g></g></g><g mask="url(#cca9319d58)"><g transform="matrix(1, 0, 0, 1, 3, 44)"><g clip-path="url(#d57425aff6)"><g clip-path="url(#fd53463fc8)"><g mask="url(#05c003ccee)"><g transform="matrix(1, 0, 0, 1, 87, -0.000000000000007105)"><g clip-path="url(#3c7dc2bd3e)"><g clip-path="url(#77fcaeb299)"><g clip-path="url(#adac63a886)"><path fill="#ffffff" d="M 0.414062 66.074219 L 0.414062 0.617188 L 71.5 0.617188 L 71.5 66.074219 Z M 0.414062 66.074219 " fill-opacity="1" fill-rule="nonzero"/></g></g></g></g></g></g><g clip-path="url(#a7a2a30717)"><g mask="url(#da520da4a0)"><g transform="matrix(1, 0, 0, 1, 36, -0.000000000000007105)"><g clip-path="url(#6e9912bf4f)"><g clip-path="url(#dd83ed5ee3)"><g clip-path="url(#7fbdf0e4cd)"><path fill="#ffffff" d="M 0.417969 33.347656 L 0.417969 0.617188 L 35.957031 0.617188 L 35.957031 33.347656 Z M 0.417969 33.347656 " fill-opacity="1" fill-rule="nonzero"/></g></g></g></g></g></g><g mask="url(#17a8056826)"><g transform="matrix(1, 0, 0, 1, 36, 65)"><g clip-path="url(#d3f6e6d18c)"><g clip-path="url(#e913c1a2bb)"><g clip-path="url(#a6862efd1d)"><path fill="#ffffff" d="M 0.417969 48.109375 L 0.417969 1.074219 L 51.488281 1.074219 L 51.488281 48.109375 Z M 0.417969 48.109375 " fill-opacity="1" fill-rule="nonzero"/></g></g></g></g></g><g clip-path="url(#95aab4bd77)"><g mask="url(#bbc6b851cf)"><g transform="matrix(1, 0, 0, 1, -0.000000000000000444, 33)"><g clip-path="url(#c2246a604f)"><g clip-path="url(#153f93a02d)"><g clip-path="url(#2cf6ad032a)"><path fill="#ffffff" d="M 0.925781 33.074219 L 0.925781 0.347656 L 36.46875 0.347656 L 36.46875 33.074219 Z M 0.925781 33.074219 " fill-opacity="1" fill-rule="nonzero"/></g></g></g></g></g></g><g mask="url(#99e7133b96)"><g transform="matrix(1, 0, 0, 1, 158, 65)"><g clip-path="url(#df6b6f5508)"><g clip-path="url(#9607c21635)"><g clip-path="url(#e08ae45e43)"><path fill="#ffffff" d="M 0.394531 1.078125 L 114.882812 1.078125 L 114.882812 106.507812 L 0.394531 106.507812 Z M 0.394531 1.078125 " fill-opacity="1" fill-rule="nonzero"/></g></g></g></g></g><g clip-path="url(#5d48c70d66)"><g mask="url(#7a64612725)"><g transform="matrix(1, 0, 0, 1, 87, -0.000000000000007105)"><g clip-path="url(#aaa95b493f)"><g clip-path="url(#cbb1f0f0bb)"><g clip-path="url(#963935dbe9)"><path fill="#ffffff" d="M 0.414062 0.617188 L 71.5 0.617188 L 71.5 66.078125 L 0.414062 66.078125 Z M 0.414062 0.617188 " fill-opacity="1" fill-rule="nonzero"/></g></g></g></g></g></g><g mask="url(#f5a2ba0df4)"><g transform="matrix(1, 0, 0, 1, 36, 65)"><g clip-path="url(#0963a94699)"><g clip-path="url(#d04c1513d1)"><g clip-path="url(#f938ca2c57)"><path fill="#ffffff" d="M 0.414062 1.078125 L 51.488281 1.078125 L 51.488281 48.109375 L 0.414062 48.109375 Z M 0.414062 1.078125 " fill-opacity="1" fill-rule="nonzero"/></g></g></g></g></g><g clip-path="url(#a778bd9c39)"><g mask="url(#c99861e41b)"><g transform="matrix(1, 0, 0, 1, 36, -0.000000000000007105)"><g clip-path="url(#0fd349b494)"><g clip-path="url(#8903ad2010)"><g clip-path="url(#bc749eee06)"><path fill="#ffffff" d="M 0.414062 0.617188 L 35.957031 0.617188 L 35.957031 33.347656 L 0.414062 33.347656 Z M 0.414062 0.617188 " fill-opacity="1" fill-rule="nonzero"/></g></g></g></g></g></g><g clip-path="url(#1ceca258ae)"><g mask="url(#89caf4932d)"><g transform="matrix(1, 0, 0, 1, -0.000000000000000444, 33)"><g clip-path="url(#a8cb2445c6)"><g clip-path="url(#ee40a7a0ff)"><g clip-path="url(#5b6bfdde36)"><path fill="#ffffff" d="M 0.925781 0.347656 L 36.46875 0.347656 L 36.46875 33.078125 L 0.925781 33.078125 Z M 0.925781 0.347656 " fill-opacity="1" fill-rule="nonzero"/></g></g></g></g></g></g></g></g></g></svg>